<svg width="167" height="32" viewBox="0 0 167 32" fill="none" xmlns="http://www.w3.org/2000/svg">
<path d="M37.9941 32H50.9119L18.912 0H5.99414L37.9941 32Z" fill="#1E1E1E"/>
<path d="M25.5488 1.63716e-06L56.3962 30.8474V0H48.0483V9.73909L38.3092 0L25.5488 1.63716e-06Z" fill="#1E1E1E"/>
<path d="M0.586426 1.07227V32.0009H8.93425V22.2617L18.6733 32.0009H31.5151L0.586426 1.07227Z" fill="#1E1E1E"/>
<path d="M72.8569 9.85547L68.2163 24H64.478L70.8179 6.9375H73.1968L72.8569 9.85547ZM76.7124 24L72.0601 9.85547L71.6851 6.9375H74.0874L80.4624 24H76.7124ZM76.5015 17.6484V20.4023H67.4897V17.6484H76.5015ZM85.2085 14.0859V24H81.8335V11.3203H85.0093L85.2085 14.0859ZM89.0288 11.2383L88.9702 14.3672C88.8062 14.3438 88.6069 14.3242 88.3726 14.3086C88.146 14.2852 87.939 14.2734 87.7515 14.2734C87.2749 14.2734 86.8608 14.3359 86.5093 14.4609C86.1655 14.5781 85.8765 14.7539 85.6421 14.9883C85.4155 15.2227 85.2437 15.5078 85.1265 15.8438C85.0171 16.1797 84.9546 16.5625 84.939 16.9922L84.2593 16.7812C84.2593 15.9609 84.3413 15.207 84.5054 14.5195C84.6694 13.8242 84.9077 13.2188 85.2202 12.7031C85.5405 12.1875 85.9312 11.7891 86.3921 11.5078C86.853 11.2266 87.3804 11.0859 87.9741 11.0859C88.1616 11.0859 88.353 11.1016 88.5483 11.1328C88.7437 11.1562 88.9038 11.1914 89.0288 11.2383ZM97.4194 11.3203V13.7109H90.0366V11.3203H97.4194ZM91.8647 8.19141H95.2397V20.1797C95.2397 20.5469 95.2866 20.8281 95.3804 21.0234C95.4819 21.2188 95.6304 21.3555 95.8257 21.4336C96.021 21.5039 96.2671 21.5391 96.564 21.5391C96.7749 21.5391 96.9624 21.5312 97.1265 21.5156C97.2983 21.4922 97.4429 21.4688 97.5601 21.4453L97.5718 23.9297C97.2827 24.0234 96.9702 24.0977 96.6343 24.1523C96.2983 24.207 95.9272 24.2344 95.521 24.2344C94.7788 24.2344 94.1304 24.1133 93.5757 23.8711C93.0288 23.6211 92.6069 23.2227 92.3101 22.6758C92.0132 22.1289 91.8647 21.4102 91.8647 20.5195V8.19141ZM105.705 20.4375L109.724 6.9375H113.638L107.697 24H105.119L105.705 20.4375ZM102.001 6.9375L106.009 20.4375L106.619 24H104.017L98.1108 6.9375H102.001ZM120.341 24.2344C119.357 24.2344 118.474 24.0781 117.693 23.7656C116.912 23.4453 116.248 23.0039 115.701 22.4414C115.162 21.8789 114.748 21.2266 114.458 20.4844C114.169 19.7344 114.025 18.9375 114.025 18.0938V17.625C114.025 16.6641 114.162 15.7852 114.435 14.9883C114.708 14.1914 115.099 13.5 115.607 12.9141C116.123 12.3281 116.748 11.8789 117.482 11.5664C118.216 11.2461 119.044 11.0859 119.966 11.0859C120.865 11.0859 121.662 11.2344 122.357 11.5312C123.052 11.8281 123.634 12.25 124.103 12.7969C124.58 13.3438 124.939 14 125.181 14.7656C125.423 15.5234 125.544 16.3672 125.544 17.2969V18.7031H115.466V16.4531H122.228V16.1953C122.228 15.7266 122.142 15.3086 121.97 14.9414C121.806 14.5664 121.556 14.2695 121.22 14.0508C120.884 13.832 120.455 13.7227 119.931 13.7227C119.486 13.7227 119.103 13.8203 118.783 14.0156C118.462 14.2109 118.201 14.4844 117.998 14.8359C117.802 15.1875 117.654 15.6016 117.552 16.0781C117.458 16.5469 117.412 17.0625 117.412 17.625V18.0938C117.412 18.6016 117.482 19.0703 117.623 19.5C117.771 19.9297 117.978 20.3008 118.244 20.6133C118.517 20.9258 118.845 21.168 119.228 21.3398C119.619 21.5117 120.06 21.5977 120.552 21.5977C121.162 21.5977 121.728 21.4805 122.251 21.2461C122.783 21.0039 123.24 20.6406 123.623 20.1562L125.263 21.9375C124.998 22.3203 124.634 22.6875 124.173 23.0391C123.72 23.3906 123.173 23.6797 122.533 23.9062C121.892 24.125 121.162 24.2344 120.341 24.2344ZM130.771 14.0273V24H127.396V11.3203H130.56L130.771 14.0273ZM130.279 17.2148H129.365C129.365 16.2773 129.486 15.4336 129.728 14.6836C129.97 13.9258 130.31 13.2812 130.748 12.75C131.185 12.2109 131.705 11.8008 132.306 11.5195C132.916 11.2305 133.595 11.0859 134.345 11.0859C134.939 11.0859 135.482 11.1719 135.974 11.3438C136.466 11.5156 136.888 11.7891 137.24 12.1641C137.599 12.5391 137.873 13.0352 138.06 13.6523C138.255 14.2695 138.353 15.0234 138.353 15.9141V24H134.955V15.9023C134.955 15.3398 134.876 14.9023 134.72 14.5898C134.564 14.2773 134.333 14.0586 134.029 13.9336C133.732 13.8008 133.365 13.7344 132.927 13.7344C132.474 13.7344 132.08 13.8242 131.744 14.0039C131.416 14.1836 131.142 14.4336 130.923 14.7539C130.712 15.0664 130.552 15.4336 130.443 15.8555C130.333 16.2773 130.279 16.7305 130.279 17.2148ZM148.419 20.9648V11.3203H151.794V24H148.619L148.419 20.9648ZM148.794 18.3633L149.791 18.3398C149.791 19.1836 149.693 19.9688 149.498 20.6953C149.302 21.4141 149.009 22.0391 148.619 22.5703C148.228 23.0938 147.736 23.5039 147.142 23.8008C146.548 24.0898 145.849 24.2344 145.044 24.2344C144.427 24.2344 143.857 24.1484 143.333 23.9766C142.818 23.7969 142.373 23.5195 141.998 23.1445C141.63 22.7617 141.341 22.2734 141.13 21.6797C140.927 21.0781 140.826 20.3555 140.826 19.5117V11.3203H144.201V19.5352C144.201 19.9102 144.244 20.2266 144.33 20.4844C144.423 20.7422 144.552 20.9531 144.716 21.1172C144.88 21.2812 145.072 21.3984 145.291 21.4688C145.517 21.5391 145.767 21.5742 146.041 21.5742C146.736 21.5742 147.283 21.4336 147.681 21.1523C148.087 20.8711 148.373 20.4883 148.537 20.0039C148.708 19.5117 148.794 18.9648 148.794 18.3633ZM160.208 24.2344C159.224 24.2344 158.341 24.0781 157.56 23.7656C156.779 23.4453 156.115 23.0039 155.568 22.4414C155.029 21.8789 154.615 21.2266 154.326 20.4844C154.037 19.7344 153.892 18.9375 153.892 18.0938V17.625C153.892 16.6641 154.029 15.7852 154.302 14.9883C154.576 14.1914 154.966 13.5 155.474 12.9141C155.99 12.3281 156.615 11.8789 157.349 11.5664C158.083 11.2461 158.912 11.0859 159.833 11.0859C160.732 11.0859 161.529 11.2344 162.224 11.5312C162.919 11.8281 163.501 12.25 163.97 12.7969C164.447 13.3438 164.806 14 165.048 14.7656C165.291 15.5234 165.412 16.3672 165.412 17.2969V18.7031H155.333V16.4531H162.095V16.1953C162.095 15.7266 162.009 15.3086 161.837 14.9414C161.673 14.5664 161.423 14.2695 161.087 14.0508C160.751 13.832 160.322 13.7227 159.798 13.7227C159.353 13.7227 158.97 13.8203 158.65 14.0156C158.33 14.2109 158.068 14.4844 157.865 14.8359C157.669 15.1875 157.521 15.6016 157.419 16.0781C157.326 16.5469 157.279 17.0625 157.279 17.625V18.0938C157.279 18.6016 157.349 19.0703 157.49 19.5C157.638 19.9297 157.845 20.3008 158.111 20.6133C158.384 20.9258 158.712 21.168 159.095 21.3398C159.486 21.5117 159.927 21.5977 160.419 21.5977C161.029 21.5977 161.595 21.4805 162.119 21.2461C162.65 21.0039 163.107 20.6406 163.49 20.1562L165.13 21.9375C164.865 22.3203 164.501 22.6875 164.041 23.0391C163.587 23.3906 163.041 23.6797 162.4 23.9062C161.759 24.125 161.029 24.2344 160.208 24.2344Z" fill="#1E1E1E"/>
</svg>
