<svg width="134" height="32" viewBox="0 0 134 32" fill="none" xmlns="http://www.w3.org/2000/svg">
<path fill-rule="evenodd" clip-rule="evenodd" d="M16.1582 32C24.9948 32 32.1582 24.8366 32.1582 16C32.1582 7.16345 24.9948 0 16.1582 0C7.32164 0 0.158203 7.16345 0.158203 16C0.158203 24.8366 7.32164 32 16.1582 32ZM21.1497 7.45348C21.3926 6.59044 20.5551 6.08011 19.7902 6.62504L9.1127 14.2317C8.28318 14.8226 8.41366 16 9.3087 16H12.1204V15.9782H17.6002L13.1352 17.5537L11.1668 24.5466C10.9238 25.4096 11.7613 25.9199 12.5262 25.375L23.2038 17.7684C24.0333 17.1774 23.9027 16 23.0078 16H18.7439L21.1497 7.45348Z" fill="#1E1E1E"/>
<path d="M54.0215 21.2578V24H41.9277V21.2578H54.0215ZM53.8457 8.89453L43.4863 24H41.0137V21.9844L51.4551 6.9375H53.8457V8.89453ZM52.6387 6.9375V9.69141H41.0254V6.9375H52.6387ZM55.252 17.7891V17.543C55.252 16.6133 55.3848 15.7578 55.6504 14.9766C55.916 14.1875 56.3027 13.5039 56.8105 12.9258C57.3184 12.3477 57.9434 11.8984 58.6855 11.5781C59.4277 11.25 60.2793 11.0859 61.2402 11.0859C62.2012 11.0859 63.0566 11.25 63.8066 11.5781C64.5566 11.8984 65.1855 12.3477 65.6934 12.9258C66.209 13.5039 66.5996 14.1875 66.8652 14.9766C67.1309 15.7578 67.2637 16.6133 67.2637 17.543V17.7891C67.2637 18.7109 67.1309 19.5664 66.8652 20.3555C66.5996 21.1367 66.209 21.8203 65.6934 22.4062C65.1855 22.9844 64.5605 23.4336 63.8184 23.7539C63.0762 24.0742 62.2246 24.2344 61.2637 24.2344C60.3027 24.2344 59.4473 24.0742 58.6973 23.7539C57.9551 23.4336 57.3262 22.9844 56.8105 22.4062C56.3027 21.8203 55.916 21.1367 55.6504 20.3555C55.3848 19.5664 55.252 18.7109 55.252 17.7891ZM58.627 17.543V17.7891C58.627 18.3203 58.6738 18.8164 58.7676 19.2773C58.8613 19.7383 59.0098 20.1445 59.2129 20.4961C59.4238 20.8398 59.6973 21.1094 60.0332 21.3047C60.3691 21.5 60.7793 21.5977 61.2637 21.5977C61.7324 21.5977 62.1348 21.5 62.4707 21.3047C62.8066 21.1094 63.0762 20.8398 63.2793 20.4961C63.4824 20.1445 63.6309 19.7383 63.7246 19.2773C63.8262 18.8164 63.877 18.3203 63.877 17.7891V17.543C63.877 17.0273 63.8262 16.543 63.7246 16.0898C63.6309 15.6289 63.4785 15.2227 63.2676 14.8711C63.0645 14.5117 62.7949 14.2305 62.459 14.0273C62.123 13.8242 61.7168 13.7227 61.2402 13.7227C60.7637 13.7227 60.3574 13.8242 60.0215 14.0273C59.6934 14.2305 59.4238 14.5117 59.2129 14.8711C59.0098 15.2227 58.8613 15.6289 58.7676 16.0898C58.6738 16.543 58.627 17.0273 58.627 17.543ZM68.7988 17.7891V17.543C68.7988 16.6133 68.9316 15.7578 69.1973 14.9766C69.4629 14.1875 69.8496 13.5039 70.3574 12.9258C70.8652 12.3477 71.4902 11.8984 72.2324 11.5781C72.9746 11.25 73.8262 11.0859 74.7871 11.0859C75.748 11.0859 76.6035 11.25 77.3535 11.5781C78.1035 11.8984 78.7324 12.3477 79.2402 12.9258C79.7559 13.5039 80.1465 14.1875 80.4121 14.9766C80.6777 15.7578 80.8105 16.6133 80.8105 17.543V17.7891C80.8105 18.7109 80.6777 19.5664 80.4121 20.3555C80.1465 21.1367 79.7559 21.8203 79.2402 22.4062C78.7324 22.9844 78.1074 23.4336 77.3652 23.7539C76.623 24.0742 75.7715 24.2344 74.8105 24.2344C73.8496 24.2344 72.9941 24.0742 72.2441 23.7539C71.502 23.4336 70.873 22.9844 70.3574 22.4062C69.8496 21.8203 69.4629 21.1367 69.1973 20.3555C68.9316 19.5664 68.7988 18.7109 68.7988 17.7891ZM72.1738 17.543V17.7891C72.1738 18.3203 72.2207 18.8164 72.3145 19.2773C72.4082 19.7383 72.5566 20.1445 72.7598 20.4961C72.9707 20.8398 73.2441 21.1094 73.5801 21.3047C73.916 21.5 74.3262 21.5977 74.8105 21.5977C75.2793 21.5977 75.6816 21.5 76.0176 21.3047C76.3535 21.1094 76.623 20.8398 76.8262 20.4961C77.0293 20.1445 77.1777 19.7383 77.2715 19.2773C77.373 18.8164 77.4238 18.3203 77.4238 17.7891V17.543C77.4238 17.0273 77.373 16.543 77.2715 16.0898C77.1777 15.6289 77.0254 15.2227 76.8145 14.8711C76.6113 14.5117 76.3418 14.2305 76.0059 14.0273C75.6699 13.8242 75.2637 13.7227 74.7871 13.7227C74.3105 13.7227 73.9043 13.8242 73.5684 14.0273C73.2402 14.2305 72.9707 14.5117 72.7598 14.8711C72.5566 15.2227 72.4082 15.6289 72.3145 16.0898C72.2207 16.543 72.1738 17.0273 72.1738 17.543ZM86.2598 13.9453V24H82.873V11.3203H86.0488L86.2598 13.9453ZM85.791 17.2148H84.8535C84.8535 16.332 84.959 15.5195 85.1699 14.7773C85.3887 14.0273 85.7051 13.3789 86.1191 12.832C86.541 12.2773 87.0605 11.8477 87.6777 11.543C88.2949 11.2383 89.0098 11.0859 89.8223 11.0859C90.3848 11.0859 90.9004 11.1719 91.3691 11.3438C91.8379 11.5078 92.2402 11.7695 92.5762 12.1289C92.9199 12.4805 93.1855 12.9414 93.373 13.5117C93.5605 14.0742 93.6543 14.75 93.6543 15.5391V24H90.2793V15.9141C90.2793 15.3359 90.2012 14.8906 90.0449 14.5781C89.8887 14.2656 89.666 14.0469 89.377 13.9219C89.0957 13.7969 88.7559 13.7344 88.3574 13.7344C87.9199 13.7344 87.5371 13.8242 87.209 14.0039C86.8887 14.1836 86.623 14.4336 86.4121 14.7539C86.2012 15.0664 86.0449 15.4336 85.9434 15.8555C85.8418 16.2773 85.791 16.7305 85.791 17.2148ZM93.3379 16.8281L92.1309 16.9805C92.1309 16.1523 92.2324 15.3828 92.4355 14.6719C92.6465 13.9609 92.9551 13.3359 93.3613 12.7969C93.7754 12.2578 94.2871 11.8398 94.8965 11.543C95.5059 11.2383 96.209 11.0859 97.0059 11.0859C97.6152 11.0859 98.1699 11.1758 98.6699 11.3555C99.1699 11.5273 99.5957 11.8047 99.9473 12.1875C100.307 12.5625 100.58 13.0547 100.768 13.6641C100.963 14.2734 101.061 15.0195 101.061 15.9023V24H97.6738V15.9023C97.6738 15.3164 97.5957 14.8711 97.4395 14.5664C97.291 14.2539 97.0723 14.0391 96.7832 13.9219C96.502 13.7969 96.166 13.7344 95.7754 13.7344C95.3691 13.7344 95.0137 13.8164 94.709 13.9805C94.4043 14.1367 94.1504 14.3555 93.9473 14.6367C93.7441 14.918 93.5918 15.2461 93.4902 15.6211C93.3887 15.9883 93.3379 16.3906 93.3379 16.8281ZM109.51 24.2344C108.525 24.2344 107.643 24.0781 106.861 23.7656C106.08 23.4453 105.416 23.0039 104.869 22.4414C104.33 21.8789 103.916 21.2266 103.627 20.4844C103.338 19.7344 103.193 18.9375 103.193 18.0938V17.625C103.193 16.6641 103.33 15.7852 103.604 14.9883C103.877 14.1914 104.268 13.5 104.775 12.9141C105.291 12.3281 105.916 11.8789 106.65 11.5664C107.385 11.2461 108.213 11.0859 109.135 11.0859C110.033 11.0859 110.83 11.2344 111.525 11.5312C112.221 11.8281 112.803 12.25 113.271 12.7969C113.748 13.3438 114.107 14 114.35 14.7656C114.592 15.5234 114.713 16.3672 114.713 17.2969V18.7031H104.635V16.4531H111.396V16.1953C111.396 15.7266 111.311 15.3086 111.139 14.9414C110.975 14.5664 110.725 14.2695 110.389 14.0508C110.053 13.832 109.623 13.7227 109.1 13.7227C108.654 13.7227 108.271 13.8203 107.951 14.0156C107.631 14.2109 107.369 14.4844 107.166 14.8359C106.971 15.1875 106.822 15.6016 106.721 16.0781C106.627 16.5469 106.58 17.0625 106.58 17.625V18.0938C106.58 18.6016 106.65 19.0703 106.791 19.5C106.939 19.9297 107.146 20.3008 107.412 20.6133C107.686 20.9258 108.014 21.168 108.396 21.3398C108.787 21.5117 109.229 21.5977 109.721 21.5977C110.33 21.5977 110.896 21.4805 111.42 21.2461C111.951 21.0039 112.408 20.6406 112.791 20.1562L114.432 21.9375C114.166 22.3203 113.803 22.6875 113.342 23.0391C112.889 23.3906 112.342 23.6797 111.701 23.9062C111.061 24.125 110.33 24.2344 109.51 24.2344ZM120.01 14.0859V24H116.635V11.3203H119.811L120.01 14.0859ZM123.83 11.2383L123.771 14.3672C123.607 14.3438 123.408 14.3242 123.174 14.3086C122.947 14.2852 122.74 14.2734 122.553 14.2734C122.076 14.2734 121.662 14.3359 121.311 14.4609C120.967 14.5781 120.678 14.7539 120.443 14.9883C120.217 15.2227 120.045 15.5078 119.928 15.8438C119.818 16.1797 119.756 16.5625 119.74 16.9922L119.061 16.7812C119.061 15.9609 119.143 15.207 119.307 14.5195C119.471 13.8242 119.709 13.2188 120.021 12.7031C120.342 12.1875 120.732 11.7891 121.193 11.5078C121.654 11.2266 122.182 11.0859 122.775 11.0859C122.963 11.0859 123.154 11.1016 123.35 11.1328C123.545 11.1562 123.705 11.1914 123.83 11.2383ZM128.799 14.0859V24H125.424V11.3203H128.6L128.799 14.0859ZM132.619 11.2383L132.561 14.3672C132.396 14.3438 132.197 14.3242 131.963 14.3086C131.736 14.2852 131.529 14.2734 131.342 14.2734C130.865 14.2734 130.451 14.3359 130.1 14.4609C129.756 14.5781 129.467 14.7539 129.232 14.9883C129.006 15.2227 128.834 15.5078 128.717 15.8438C128.607 16.1797 128.545 16.5625 128.529 16.9922L127.85 16.7812C127.85 15.9609 127.932 15.207 128.096 14.5195C128.26 13.8242 128.498 13.2188 128.811 12.7031C129.131 12.1875 129.521 11.7891 129.982 11.5078C130.443 11.2266 130.971 11.0859 131.564 11.0859C131.752 11.0859 131.943 11.1016 132.139 11.1328C132.334 11.1562 132.494 11.1914 132.619 11.2383Z" fill="#1E1E1E"/>
</svg>
