<svg width="110" height="32" viewBox="0 0 110 32" fill="none" xmlns="http://www.w3.org/2000/svg">
<path d="M10.3641 19.9817V28.1025C10.3641 28.4138 10.2405 28.7124 10.0203 28.9324C9.80029 29.1526 9.50175 29.2762 9.1904 29.2762C8.87916 29.2762 8.58061 29.1526 8.36046 28.9324C8.14031 28.7124 8.01665 28.4138 8.01665 28.1025V19.993C8.3435 20.2317 8.73527 20.3649 9.13985 20.3749C9.58082 20.3874 10.0129 20.2487 10.3641 19.9817ZM20.3606 17.6343C20.0628 17.6343 19.777 17.7526 19.5664 17.9632C19.3558 18.1738 19.2374 18.4596 19.2374 18.7575V20.1727C19.2374 20.484 19.3611 20.7826 19.5812 21.0026C19.8013 21.2228 20.0998 21.3464 20.4112 21.3464C20.7225 21.3464 21.0211 21.2228 21.2411 21.0026C21.4613 20.7826 21.5849 20.484 21.5849 20.1727V18.8136C21.5937 18.6526 21.5676 18.4915 21.5085 18.3414C21.4495 18.1914 21.3588 18.0557 21.2426 17.9438C21.1264 17.8319 20.9875 17.7464 20.8354 17.6929C20.6832 17.6395 20.5212 17.6195 20.3606 17.6343ZM5.46698 23.0593C5.06282 23.0472 4.67157 22.9142 4.34378 22.6774V30.8206C4.34378 31.1335 4.46803 31.4335 4.68921 31.6546C4.91038 31.8758 5.21035 32 5.52314 32C5.83593 32 6.13591 31.8758 6.35708 31.6546C6.57826 31.4335 6.7025 31.1335 6.7025 30.8206V22.7336C6.33572 22.9707 5.90296 23.0848 5.46698 23.0593ZM16.699 15.1969C16.5468 15.1893 16.3947 15.2127 16.2518 15.2658C16.1091 15.3188 15.9786 15.4003 15.8682 15.5053C15.7579 15.6105 15.6701 15.7368 15.6102 15.8769C15.5503 16.017 15.5194 16.1678 15.5196 16.3201V22.5763C15.5196 22.8892 15.6439 23.1892 15.865 23.4103C16.0863 23.6315 16.3862 23.7557 16.699 23.7557C17.0118 23.7557 17.3118 23.6315 17.533 23.4103C17.7541 23.1892 17.8784 22.8892 17.8784 22.5763V16.3987C17.8873 16.2367 17.8611 16.0746 17.8013 15.9236C17.7416 15.7727 17.6499 15.6364 17.5324 15.5243C17.4149 15.4122 17.2746 15.3269 17.1211 15.2743C16.9676 15.2216 16.8043 15.2029 16.6428 15.2194L16.699 15.1969ZM12.97 17.6006C12.5469 17.5976 12.1351 17.4643 11.7906 17.2187V25.3843C11.7906 25.6972 11.9148 25.9972 12.136 26.2183C12.3573 26.4395 12.6572 26.5637 12.97 26.5637C13.2828 26.5637 13.5827 26.4395 13.8039 26.2183C14.0251 25.9972 14.1493 25.6972 14.1493 25.3843V17.2299C13.793 17.4953 13.358 17.6337 12.9138 17.623L12.97 17.6006ZM2.91732 23.8568V1.04458C2.91436 0.766506 2.80182 0.500847 2.60413 0.305264C2.40645 0.109681 2.13959 -1.12311e-05 1.86151 8.625e-10H1.6144C1.33632 -1.12311e-05 1.06946 0.109681 0.871776 0.305264C0.674093 0.500847 0.561548 0.766506 0.558594 1.04458V23.8568C0.558594 24.1368 0.669836 24.4054 0.867834 24.6034C1.06583 24.8014 1.33439 24.9126 1.6144 24.9126H1.86151C2.14153 24.9126 2.41008 24.8014 2.60808 24.6034C2.80609 24.4054 2.91732 24.1368 2.91732 23.8568ZM5.59053 22.1945H5.34343C5.06342 22.1945 4.79486 22.0833 4.59686 21.8852C4.39886 21.6872 4.28762 21.4187 4.28762 21.1386V3.76272C4.29059 3.48466 4.40312 3.21898 4.6008 3.02341C4.79849 2.82783 5.06535 2.71814 5.34343 2.71815H5.59053C5.86862 2.71814 6.13548 2.82783 6.33316 3.02341C6.53084 3.21898 6.64339 3.48466 6.64634 3.76272V21.1611C6.64634 21.4411 6.5351 21.7097 6.3371 21.9077C6.13911 22.1057 5.87055 22.2169 5.59053 22.2169V22.1945ZM9.30833 19.5212H9.04999C8.77301 19.5212 8.50726 19.4112 8.31138 19.2153C8.11549 19.0194 8.00542 18.7538 8.00542 18.4767V6.45841C8.00396 6.32029 8.0299 6.18325 8.08168 6.05521C8.13346 5.92718 8.21018 5.8107 8.30733 5.71251C8.40449 5.61432 8.52018 5.53637 8.64766 5.48318C8.77515 5.42998 8.91184 5.40259 9.04999 5.4026H9.30833C9.58644 5.40556 9.85207 5.5181 10.0476 5.71578C10.2433 5.91346 10.3529 6.18032 10.3529 6.45841V18.4767C10.3529 18.7538 10.2428 19.0194 10.0469 19.2153C9.85106 19.4112 9.58542 19.5212 9.30833 19.5212ZM13.0261 16.7694H12.7903C12.5121 16.7694 12.2453 16.6598 12.0476 16.4641C11.8499 16.2686 11.7374 16.0029 11.7344 15.7248V9.25518C11.7252 9.11096 11.7457 8.9664 11.7946 8.83038C11.8435 8.69448 11.9199 8.56991 12.0188 8.46467C12.1178 8.35931 12.2373 8.27552 12.3701 8.21824C12.5027 8.16107 12.6457 8.13164 12.7903 8.13198H13.0374C13.3174 8.13198 13.5859 8.24317 13.7839 8.44119C13.982 8.63921 14.0932 8.90777 14.0932 9.18779V15.7024C14.0946 15.842 14.0685 15.9805 14.016 16.1098C13.9637 16.2392 13.8862 16.357 13.7879 16.4562C13.6897 16.5554 13.5729 16.6342 13.444 16.688C13.3151 16.7418 13.177 16.7694 13.0374 16.7694H13.0261ZM16.7552 14.3545H16.5081C16.228 14.3545 15.9595 14.2433 15.7615 14.0453C15.5634 13.8473 15.4522 13.5787 15.4522 13.2987V11.6251C15.4552 11.347 15.5677 11.0814 15.7654 10.8858C15.9631 10.6902 16.2299 10.5806 16.5081 10.5806H16.7552C17.0333 10.5806 17.3001 10.6902 17.4978 10.8858C17.6955 11.0814 17.808 11.347 17.811 11.6251V13.2987C17.811 13.5768 17.7013 13.8437 17.5057 14.0414C17.3101 14.239 17.0445 14.3516 16.7664 14.3545H16.7552Z" fill="#1E1E1E"/>
<path d="M35.2231 21.293L38.6216 6.9375H40.52L40.9536 9.32812L37.3325 24H35.2935L35.2231 21.293ZM33.4771 6.9375L36.2896 21.293L36.0552 24H33.7817L29.9966 6.9375H33.4771ZM43.9419 21.2344L46.7192 6.9375H50.1997L46.4263 24H44.1528L43.9419 21.2344ZM41.5864 6.9375L45.0083 21.3516L44.9146 24H42.8755L39.231 9.31641L39.6997 6.9375H41.5864ZM58.5317 9.85547L53.8911 24H50.1528L56.4927 6.9375H58.8716L58.5317 9.85547ZM62.3872 24L57.7349 9.85547L57.3599 6.9375H59.7622L66.1372 24H62.3872ZM62.1763 17.6484V20.4023H53.1646V17.6484H62.1763ZM72.9106 20.4375L76.9302 6.9375H80.8442L74.9028 24H72.3247L72.9106 20.4375ZM69.2075 6.9375L73.2153 20.4375L73.8247 24H71.2231L65.3169 6.9375H69.2075ZM93.8872 21.2578V24H84.8052V21.2578H93.8872ZM85.9536 6.9375V24H82.438V6.9375H85.9536ZM92.7036 13.8867V16.5586H84.8052V13.8867H92.7036ZM93.8755 6.9375V9.69141H84.8052V6.9375H93.8755ZM104.821 19.5352C104.821 19.2305 104.774 18.957 104.68 18.7148C104.594 18.4648 104.43 18.2383 104.188 18.0352C103.946 17.8242 103.606 17.6172 103.168 17.4141C102.731 17.2109 102.165 17 101.469 16.7812C100.696 16.5312 99.9614 16.25 99.2661 15.9375C98.5786 15.625 97.9692 15.2617 97.438 14.8477C96.9146 14.4258 96.5005 13.9375 96.1958 13.3828C95.8989 12.8281 95.7505 12.1836 95.7505 11.4492C95.7505 10.7383 95.9067 10.0938 96.2192 9.51562C96.5317 8.92969 96.9692 8.42969 97.5317 8.01562C98.0942 7.59375 98.7583 7.26953 99.5239 7.04297C100.297 6.81641 101.145 6.70312 102.067 6.70312C103.325 6.70312 104.422 6.92969 105.36 7.38281C106.297 7.83594 107.024 8.45703 107.54 9.24609C108.063 10.0352 108.325 10.9375 108.325 11.9531H104.833C104.833 11.4531 104.727 11.0156 104.516 10.6406C104.313 10.2578 104 9.95703 103.579 9.73828C103.165 9.51953 102.641 9.41016 102.008 9.41016C101.399 9.41016 100.891 9.50391 100.485 9.69141C100.079 9.87109 99.7739 10.1172 99.5708 10.4297C99.3677 10.7344 99.2661 11.0781 99.2661 11.4609C99.2661 11.75 99.3364 12.0117 99.4771 12.2461C99.6255 12.4805 99.8442 12.6992 100.133 12.9023C100.422 13.1055 100.778 13.2969 101.2 13.4766C101.622 13.6562 102.11 13.832 102.665 14.0039C103.594 14.2852 104.411 14.6016 105.114 14.9531C105.825 15.3047 106.418 15.6992 106.895 16.1367C107.372 16.5742 107.731 17.0703 107.973 17.625C108.215 18.1797 108.336 18.8086 108.336 19.5117C108.336 20.2539 108.192 20.918 107.903 21.5039C107.614 22.0898 107.196 22.5859 106.649 22.9922C106.102 23.3984 105.45 23.707 104.692 23.918C103.934 24.1289 103.086 24.2344 102.149 24.2344C101.305 24.2344 100.473 24.125 99.6528 23.9062C98.8325 23.6797 98.0864 23.3398 97.4146 22.8867C96.7505 22.4336 96.2192 21.8555 95.8208 21.1523C95.4224 20.4492 95.2231 19.6172 95.2231 18.6562H98.7505C98.7505 19.1875 98.8325 19.6367 98.9966 20.0039C99.1606 20.3711 99.3911 20.668 99.688 20.8945C99.9927 21.1211 100.352 21.2852 100.766 21.3867C101.188 21.4883 101.649 21.5391 102.149 21.5391C102.758 21.5391 103.258 21.4531 103.649 21.2812C104.047 21.1094 104.34 20.8711 104.528 20.5664C104.723 20.2617 104.821 19.918 104.821 19.5352Z" fill="#1E1E1E"/>
</svg>
