<svg width="125" height="32" viewBox="0 0 125 32" fill="none" xmlns="http://www.w3.org/2000/svg">
<path fill-rule="evenodd" clip-rule="evenodd" d="M0.158203 16.3482L0.159747 16.1879L0.162931 16.0275L0.167763 15.8671L0.174235 15.7067L0.182363 15.5463L0.192131 15.3859L0.203555 15.2256L0.216619 15.0653L0.231339 14.905L0.247707 14.7448L0.265723 14.5848L0.285379 14.4248L0.306691 14.265L0.329651 14.1053L0.354251 13.9458L0.380499 13.7865L0.408395 13.6273L0.437923 13.4684L0.469099 13.3097L0.501915 13.1512L0.536371 12.993L0.572451 12.835L0.610179 12.6774L0.649523 12.5201L0.690507 12.3631L0.733107 12.2064L0.777339 12.0501L0.823187 11.8942L0.870651 11.7386L0.919723 11.5835L0.970411 11.4288L1.02271 11.2745L1.0766 11.1206L1.13209 10.9673L1.18918 10.8144L1.24785 10.662L1.30812 10.5102L1.36996 10.3588L1.43337 10.2081L1.49836 10.0578L1.56491 9.90816L1.63302 9.75912L1.70268 9.61072L1.7739 9.46288L1.84666 9.31568L1.92096 9.1692L1.99678 9.02336L2.07413 8.87816L2.153 8.73376L2.23337 8.59L2.31526 8.44696L2.39864 8.30472L2.48351 8.1632L2.56986 8.02248L2.65769 7.88256L2.74699 7.74344L2.83775 7.6052L2.92996 7.46768L3.02362 7.33112L3.11872 7.19536L3.21524 7.06048L3.31317 6.92656L3.41252 6.79344L3.51328 6.66136L3.61543 6.53016L3.71896 6.39987L3.82386 6.27059L3.93013 6.14229L4.03776 6.01498L4.14673 5.88866L4.25704 5.76338L4.36868 5.63913L4.48163 5.51592L4.59589 5.39378L4.71144 5.2727L4.82828 5.15272L4.9464 5.03383L5.06577 4.91606L5.1864 4.79941L5.30827 4.6839L5.43138 4.56954L5.5557 4.45634L5.68123 4.34433L5.80796 4.2335L5.93587 4.12386L6.06495 4.01544L6.19519 3.90825L6.32658 3.80229L6.45911 3.69758L6.59276 3.59412L6.72748 3.49194L6.8634 3.39104L7.00036 3.29144L7.13836 3.19314L7.2774 3.09616L7.41756 3.0005L7.55868 2.90618L7.70084 2.81321L7.84404 2.72159L7.98828 2.63135L8.1334 2.54249L8.27956 2.45501L8.4266 2.36894L8.5746 2.28427L8.72356 2.20102L8.8734 2.11921L9.02412 2.03882L9.17572 1.9599L9.3282 1.88242L9.48156 1.80641L9.63572 1.73187L9.79076 1.65882L9.94652 1.58726L10.1032 1.5172L10.2605 1.44865L10.4187 1.38162L10.5776 1.31611L10.7372 1.25214L10.8975 1.1897L11.0585 1.12882L11.2202 1.06948L11.3826 1.01172L11.5456 0.95552L11.7093 0.900896L11.8736 0.847864L12.0384 0.796416L12.204 0.746568L12.37 0.698328L12.5366 0.651696L12.7038 0.606672L12.8715 0.563272L13.0396 0.521504L13.2083 0.481376L13.3775 0.442872L13.5471 0.406024L13.7171 0.370816L13.8876 0.337264L14.0584 0.305376L14.2297 0.275144L14.4014 0.246584L14.5734 0.219696L14.7457 0.19448L14.9184 0.170952L15.0913 0.149104L15.2646 0.128944L15.4381 0.110464L15.6119 0.093696L15.7859 0.078616L15.9601 0.0652321L16.1345 0.0535601L17.0724 0L17.126 4.51894L17.1566 4.51858L17.2861 4.5184L17.4156 4.51949L17.5452 4.52185L17.6748 4.52549L17.8044 4.5304L17.9341 4.53658L18.0638 4.54404L18.1935 4.55278L18.3231 4.56279L18.4528 4.57409L18.5823 4.58666L18.7118 4.60052L18.8412 4.61565L18.9705 4.63206L19.0997 4.64974L19.2288 4.6687L19.3578 4.68895L19.4867 4.71047L19.6153 4.73326L19.7439 4.75734L19.8722 4.78268L20.0003 4.8093L20.1283 4.83719L20.256 4.86635L20.3834 4.89678L20.5107 4.92847L20.6376 4.96144L20.7643 4.99566L20.8907 5.03115L21.0168 5.0679L21.1426 5.1059L21.268 5.14515L21.3932 5.18566L21.518 5.22742L21.6424 5.27042L21.7664 5.31467L21.89 5.36015L22.0132 5.40688L22.136 5.45483L22.2584 5.50402L22.3804 5.55444L22.5018 5.60607L22.6228 5.65893L22.7434 5.713L22.8634 5.76828L22.9829 5.82476L23.102 5.88245L23.2204 5.94134L23.3384 6.00142L23.4557 6.06268L23.5725 6.12513L23.6888 6.18876L23.8044 6.25356L23.9194 6.31953L24.0338 6.38666L24.1476 6.45496L24.2607 6.5244L24.3732 6.59496L24.4849 6.66672L24.596 6.73952L24.7064 6.81352L24.8162 6.88864L24.9252 6.9648L25.0335 7.04216L25.141 7.12056L25.2477 7.20008L25.3538 7.28072L25.459 7.3624L25.5635 7.4452L25.6671 7.52896L25.77 7.61384L25.872 7.69984L25.9732 7.7868L26.0736 7.8748L26.1731 7.96384L26.2716 8.05392L26.3694 8.14504L26.4663 8.23712L26.5623 8.33016L26.6573 8.42424L26.7515 8.51928L26.8447 8.61536L26.937 8.71232L27.0283 8.81024L27.1187 8.90912L27.208 9.00896L27.2964 9.10968L27.3839 9.21136L27.4703 9.31392L27.5557 9.41736L27.6401 9.52176L27.7235 9.62696L27.8058 9.73304L27.8871 9.84L27.9673 9.94784L28.0464 10.0565L28.1245 10.166L28.2015 10.2763L28.2774 10.3874L28.3522 10.4993L28.4259 10.612L28.4984 10.7255L28.5698 10.8398L28.6401 10.9547L28.7092 11.0705L28.7772 11.187L28.844 11.3042L28.9097 11.4221L28.9742 11.5407L29.0375 11.66L29.0996 11.78L29.1604 11.9006L29.2201 12.0219L29.2786 12.1439L29.3359 12.2665L29.3919 12.3897L29.4467 12.5135L29.5002 12.6379L29.5524 12.763L29.6035 12.8885L29.6532 13.0146L29.7017 13.1413L29.7489 13.2686L29.7948 13.3962L29.8395 13.5246L29.8828 13.6533L29.9249 13.7826L29.9656 13.9122L30.0051 14.0424L30.0432 14.173L30.08 14.3041L30.1154 14.4356L30.1496 14.5675L30.1823 14.6998L30.2138 14.8325L30.2439 14.9655L30.2726 15.099L30.3 15.2326L30.326 15.3668L30.3507 15.5012L30.374 15.6359L30.396 15.7709L30.4165 15.9062L30.4357 16.0418L30.4535 16.1775L30.4699 16.3136L30.4849 16.4498L30.4985 16.5863L30.5108 16.723L30.5216 16.8598L30.5311 16.9969L30.5391 17.1341L30.5457 17.2714L30.551 17.4089L30.5548 17.5464L30.5572 17.6841L30.5582 17.8218L30.5578 17.9597L30.556 18.0976L30.5527 18.2356L30.548 18.3735L30.542 18.5115L30.5345 18.6495L30.5256 18.7875L30.5152 18.9255L30.5035 19.0634L30.4903 19.2014L30.4757 19.3392L30.4596 19.4769L30.4422 19.6146L30.4234 19.7521L30.4031 19.8895L30.3814 20.0268L30.3583 20.1639L30.3337 20.3009L30.3078 20.4377L30.2804 20.5743L30.2516 20.7107L30.2214 20.8469L30.1898 20.9829L30.1568 21.1186L30.1224 21.254L30.0865 21.3891L30.0493 21.524L30.0107 21.6586L29.9707 21.7928L29.9292 21.9268L29.8864 22.0603L29.8422 22.1936L29.7966 22.3264L29.7496 22.4589L29.7012 22.591L29.6515 22.7226L29.6004 22.8538L29.5479 22.9846L29.494 23.1149L29.4388 23.2447L29.3823 23.3742L29.3244 23.503L29.2651 23.6314L29.2044 23.7592L29.1425 23.8865L29.0792 24.0133L29.0146 24.1394L28.9486 24.2651L28.8814 24.3901L28.8128 24.5146L28.7429 24.6383L28.6717 24.7615L28.5992 24.8841L28.5255 25.0059L28.4504 25.1272L28.374 25.2477L28.2964 25.3675L28.2176 25.4866L28.1375 25.605L28.0561 25.7227L27.9735 25.8397L27.8896 25.9558L27.8045 26.0713L27.7182 26.1859L27.6307 26.2998L27.542 26.4127L27.452 26.525L27.3609 26.6363L27.2686 26.7468L27.1751 26.8565L27.0804 26.9653L26.9846 27.0732L26.8876 27.1802L26.7896 27.2864L26.6904 27.3916L26.59 27.4959L26.4885 27.5992L26.3859 27.7016L26.2822 27.803L26.1775 27.9035L26.0716 28.003L25.9648 28.1015L25.8568 28.199L25.7477 28.2954L25.6377 28.3909L25.5266 28.4854L25.4145 28.5787L25.3014 28.671L25.1873 28.7622L25.0722 28.8524L24.9561 28.9414L24.8391 29.0294L24.7211 29.1162L24.6022 29.202L24.4823 29.2866L24.3615 29.3701L24.2398 29.4524L24.1172 29.5335L23.9937 29.6135L23.8694 29.6924L23.7442 29.77L23.6181 29.8465L23.4912 29.9217L23.3634 29.9958L23.2349 30.0686L23.1055 30.1401L22.9754 30.2105L22.8444 30.2795L22.7128 30.3474L22.5803 30.414L22.4471 30.4793L22.3132 30.5433L22.1785 30.6061L22.0432 30.6675L21.9072 30.7277L21.7704 30.7865L21.6331 30.844L21.4951 30.9002L21.3564 30.9551L21.2172 31.0086L21.0772 31.0609L20.9368 31.1117L20.7956 31.1612L20.654 31.2093L20.5119 31.2561L20.3691 31.3014L20.2258 31.3454L20.082 31.3881L19.9378 31.4293L19.793 31.4691L19.6478 31.5076L19.502 31.5446L19.356 31.5802L19.2094 31.6144L19.0624 31.6471L18.915 31.6785L18.7672 31.7084L18.6191 31.7369L18.4706 31.7639L18.3218 31.7894L18.1726 31.8136L18.0232 31.8363L17.8733 31.8575L17.7233 31.8773L17.573 31.8956L17.4224 31.9124L17.2716 31.9278L17.1205 31.9417L16.9693 31.9541L16.8179 31.965L16.6663 31.9745L16.5144 31.9825L16.3625 31.989L16.2105 31.9939L16.0583 31.9974L15.906 31.9994L15.7536 32L15.6012 31.999L15.4488 31.9966L15.2962 31.9926L15.1436 31.9871L14.9911 31.9802L14.8385 31.9718L14.686 31.9618L14.5335 31.9503L14.3811 31.9374L14.2287 31.9229L14.0764 31.907L13.9242 31.8895L13.7721 31.8706L13.6201 31.8501L13.4684 31.8281L13.3167 31.8046L13.1652 31.7797L13.014 31.7533L12.8628 31.7253L12.712 31.6958L12.5614 31.665L12.4111 31.6325L12.2609 31.5986L12.1112 31.5632L11.9616 31.5263L11.8124 31.4879L11.6636 31.4481L11.5151 31.4068L11.3669 31.364L11.2191 31.3198L11.0717 31.274L10.9248 31.2268L10.7782 31.1782L10.632 31.128L10.4864 31.0764L10.3412 31.0234L10.1964 30.969L10.0522 30.913L9.90852 30.8557L9.76532 30.7969L9.62268 30.7366L9.4806 30.675L9.33908 30.612L9.19812 30.5475L9.0578 30.4816L8.91812 30.4143L8.77908 30.3456L8.6406 30.2755L8.50284 30.2041L8.3658 30.1312L8.22932 30.057L8.09364 29.9814L7.95868 29.9045L7.82444 29.8262L7.69092 29.7465L7.5582 29.6655L7.4262 29.5831L7.295 29.4995L7.16468 29.4145L7.03508 29.3282L6.90636 29.2406L6.77852 29.1517L6.65148 29.0615L6.52533 28.97L6.40007 28.8773L6.2757 28.7832L6.15225 28.6879L6.02972 28.5914L5.90813 28.4936L5.7875 28.3946L5.66783 28.2944L5.54913 28.193L5.43143 28.0903L5.31473 27.9864L5.19905 27.8814L5.0844 27.7752L4.97079 27.6678L4.85824 27.5593L4.74675 27.4495L4.63633 27.3387L4.52701 27.2268L4.4188 27.1137L4.31169 26.9995L4.20572 26.8842L4.10088 26.7678L3.9972 26.6504L3.89467 26.5319L3.79332 26.4123L3.69315 26.2918L3.59418 26.1701L3.49641 26.0474L3.39987 25.9238L3.30455 25.7991L3.21047 25.6734L3.11764 25.5468L3.02607 25.4192L2.93576 25.2906L2.84675 25.1612L2.75902 25.0308L2.6726 24.8994L2.58748 24.7673L2.50368 24.6342L2.42122 24.5002L2.3401 24.3654L2.26032 24.2296L2.18192 24.0931L2.10487 23.9558L2.0292 23.8176L1.95492 23.6786L1.88202 23.5388L1.81054 23.3983L1.74046 23.257L1.67181 23.115L1.60459 22.9722L1.5388 22.8288L1.47445 22.6846L1.41156 22.5398L1.35012 22.3942L1.29016 22.248L1.23167 22.1011L1.17466 21.9536L1.11915 21.8055L1.06512 21.6568L1.0126 21.5075L0.961587 21.3577L0.912091 21.2072L0.864123 21.0562L0.817675 20.9047L0.772771 20.7527L0.729403 20.6002L0.687579 20.4471L0.647307 20.2937L0.608595 20.1398L0.571443 19.9854L0.535867 19.8306L0.501859 19.6753L0.469427 19.5197L0.438579 19.3637L0.409315 19.2074L0.381643 19.0506L0.355571 18.8936L0.331091 18.7362L0.308219 18.5786L0.286955 18.4206L0.267307 18.2623L0.249267 18.1038L0.232843 17.9451L0.218043 17.7862L0.204867 17.627L0.193315 17.4677L0.183395 17.3082L0.175107 17.1485L0.168451 16.9886L0.163427 16.8287L0.160043 16.6686L0.158307 16.5085L0.158203 16.3482ZM15.6607 4.61359L15.6242 1.53343L15.5896 1.53678L15.4305 1.5537L15.2719 1.57217L15.1133 1.5922L14.9554 1.61372L14.7976 1.63681L14.64 1.66144L14.4829 1.68758L14.326 1.71529L14.1698 1.74443L14.0134 1.77521L13.8581 1.80737L13.7026 1.84115L13.5479 1.87637L13.3933 1.91315L13.2395 1.95134L13.086 1.99107L12.933 2.03228L12.7804 2.07498L12.6286 2.1191L12.477 2.16475L12.3262 2.21182L12.1758 2.26038L12.0262 2.31028L11.8768 2.36176L11.7283 2.41462L11.5804 2.46887L11.433 2.52461L11.2864 2.5817L11.1405 2.64018L10.9951 2.70015L10.8504 2.76149L10.7064 2.82422L10.5632 2.88828L10.4207 2.95373L10.279 3.0205L10.1378 3.08874L9.99764 3.15822L9.8582 3.22906L9.71956 3.30124L9.58172 3.37475L9.44484 3.44952L9.30852 3.52567L9.17308 3.60314L9.03884 3.68172L8.905 3.76183L8.77244 3.84301L8.64076 3.92545L8.50972 4.00924L8.37972 4.09426L8.25068 4.18051L8.12284 4.26778L7.99548 4.3566L7.8694 4.44637L7.74428 4.53738L7.62004 4.62963L7.49692 4.72298L7.37492 4.81746L7.25364 4.91326L7.13372 5.00997L7.01468 5.10795L6.89676 5.207L6.77988 5.3072L6.6642 5.40836L6.54939 5.5108L6.43588 5.61415L6.32335 5.7187L6.21212 5.82412L6.1019 5.93069L5.99291 6.03822L5.88503 6.14681L5.7782 6.25652L5.67276 6.36698L5.56852 6.4784L5.4652 6.59112L5.36331 6.70456L5.26267 6.8188L5.16306 6.93424L5.0649 7.0504L4.96783 7.1676L4.87206 7.2856L4.77755 7.40456L4.68427 7.52432L4.59236 7.64488L4.50166 7.76632L4.4122 7.88872L4.32419 8.01168L4.23735 8.13568L4.15189 8.26032L4.06776 8.38576L3.98488 8.512L3.90341 8.63896L3.82328 8.76656L3.74448 8.89496L3.6671 9.024L3.59099 9.15384L3.51624 9.2844L3.44297 9.41544L3.37101 9.5472L3.30043 9.67968L3.23128 9.81272L3.16348 9.9464L3.09715 10.0806L3.0322 10.2154L2.96868 10.3507L2.90654 10.4867L2.84588 10.6231L2.78659 10.7602L2.72875 10.8977L2.67239 11.0356L2.61744 11.1741L2.56392 11.313L2.51188 11.4524L2.46128 11.5922L2.41218 11.7324L2.36449 11.8731L2.31828 12.0142L2.27356 12.1556L2.23031 12.2973L2.1885 12.4395L2.1482 12.5819L2.10938 12.7247L2.07203 12.8678L2.03616 13.0112L2.0018 13.1548L1.96892 13.2987L1.93752 13.4429L1.90763 13.5873L1.87923 13.7318L1.85232 13.8766L1.82691 14.0216L1.803 14.1668L1.78059 14.3121L1.75968 14.4575L1.74027 14.6031L1.72236 14.7488L1.70595 14.8946L1.69104 15.0405L1.67764 15.1864L1.66574 15.3323L1.65534 15.4784L1.64644 15.6245L1.63904 15.7705L1.63315 15.9166L1.62875 16.0626L1.62585 16.2086L1.62444 16.3545L1.62454 16.5004L1.62612 16.6462L1.6292 16.7919L1.63377 16.9375L1.63983 17.083L1.64738 17.2283L1.6564 17.3734L1.66692 17.5185L1.67891 17.6633L1.69238 17.8079L1.70732 17.9524L1.72373 18.0966L1.74161 18.2406L1.76096 18.3842L1.78176 18.5277L1.80404 18.6709L1.82775 18.8137L1.85292 18.9562L1.87954 19.0985L1.9076 19.2403L1.93709 19.3819L1.96802 19.523L2.00038 19.6638L2.03416 19.8042L2.06936 19.9442L2.10599 20.0838L2.144 20.2229L2.18344 20.3616L2.22428 20.4998L2.2665 20.6376L2.31012 20.7749L2.3551 20.9116L2.40147 21.0478L2.44921 21.1835L2.49832 21.3187L2.54876 21.4533L2.6006 21.5874L2.65374 21.7208L2.70823 21.8537L2.76406 21.9859L2.8212 22.1175L2.87968 22.2486L2.93945 22.379L3.00053 22.5086L3.0629 22.6377L3.12656 22.766L3.1915 22.8937L3.25772 23.0206L3.32519 23.1469L3.39392 23.2724L3.4639 23.3971L3.53512 23.5211L3.60756 23.6444L3.68124 23.7668L3.7561 23.8885L3.83221 24.0094L3.90948 24.1294L3.98796 24.2486L4.06762 24.367L4.14843 24.4846L4.2304 24.6013L4.31354 24.7171L4.3978 24.8321L4.48321 24.9462L4.56971 25.0593L4.65736 25.1715L4.74607 25.2828L4.83589 25.3932L4.92682 25.5027L5.01876 25.6112L5.1118 25.7187L5.20588 25.8253L5.30102 25.9309L5.39716 26.0354L5.49431 26.139L5.59248 26.2416L5.69164 26.3432L5.79182 26.4438L5.89294 26.5432L5.99505 26.6417L6.09808 26.739L6.20205 26.8354L6.30699 26.9307L6.41282 27.0249L6.5195 27.1179L6.62716 27.2099L6.73572 27.3008L6.845 27.3906L6.95532 27.4793L7.06636 27.5667L7.17828 27.6531L7.291 27.7384L7.4046 27.8225L7.51892 27.9054L7.63404 27.9871L7.74988 28.0677L7.8666 28.1471L7.98396 28.2253L8.1022 28.3023L8.221 28.3782L8.3406 28.4527L8.46092 28.5262L8.5818 28.5983L8.70348 28.6693L8.82572 28.739L8.94868 28.8074L9.0722 28.8746L9.19644 28.9406L9.32116 29.0054L9.44652 29.0689L9.57252 29.131L9.69908 29.192L9.82612 29.2517L9.95372 29.3101L10.0818 29.3671L10.2105 29.423L10.3396 29.4774L10.4693 29.5307L10.5994 29.5826L10.73 29.6332L10.861 29.6826L10.9924 29.7306L11.1242 29.7772L11.2565 29.8226L11.3892 29.8666L11.5222 29.9094L11.6555 29.9507L11.7893 29.9908L11.9233 30.0295L12.0577 30.0669L12.1924 30.103L12.3274 30.1377L12.4627 30.171L12.5981 30.203L12.734 30.2338L12.87 30.263L13.0061 30.291L13.1426 30.3177L13.2792 30.343L13.416 30.3669L13.553 30.3894L13.6901 30.4106L13.8274 30.4305L13.9648 30.449L14.1023 30.4662L14.2399 30.4819L14.3776 30.4963L14.5153 30.5094L14.6532 30.5211L14.791 30.5315L14.9288 30.5405L15.0668 30.5482L15.2046 30.5544L15.3424 30.5594L15.4803 30.563L15.6181 30.5651L15.7558 30.566L15.8935 30.5655L16.0311 30.5637L16.1685 30.5606L16.3059 30.556L16.4432 30.5502L16.5803 30.543L16.7172 30.5344L16.854 30.5246L16.9906 30.5134L17.127 30.5008L17.2632 30.4869L17.3992 30.4717L17.5348 30.4552L17.6704 30.4374L17.8056 30.4182L17.9405 30.3977L18.0752 30.3759L18.2096 30.3528L18.3436 30.3284L18.4773 30.3027L18.6107 30.2758L18.7437 30.2474L18.8764 30.2179L19.0086 30.187L19.1405 30.1549L19.272 30.1215L19.403 30.0868L19.5336 30.0509L19.6638 30.0137L19.7935 29.9752L19.9228 29.9355L20.0515 29.8946L20.1798 29.8524L20.3076 29.809L20.4347 29.7644L20.5615 29.7185L20.6876 29.6714L20.8132 29.6231L20.9383 29.5737L21.0627 29.523L21.1865 29.4711L21.3098 29.4181L21.4324 29.3638L21.5544 29.3085L21.6758 29.2519L21.7965 29.1942L21.9165 29.1354L22.036 29.0753L22.1546 29.0142L22.2726 28.9519L22.39 28.8885L22.5064 28.824L22.6223 28.7584L22.7373 28.6918L22.8518 28.6239L22.9652 28.5551L23.0782 28.4851L23.1901 28.4142L23.3013 28.3421L23.4118 28.269L23.5215 28.1947L23.6301 28.1197L23.738 28.0434L23.8452 27.9662L23.9514 27.8881L24.0568 27.8088L24.1612 27.7287L24.265 27.6474L24.3676 27.5654L24.4694 27.4823L24.5704 27.3982L24.6704 27.3132L24.7694 27.2274L24.8676 27.1405L24.9647 27.0528L25.0609 26.9642L25.1562 26.8746L25.2504 26.7843L25.3437 26.693L25.436 26.6008L25.5273 26.5078L25.6176 26.414L25.7068 26.3194L25.795 26.2241L25.8824 26.1276L25.9684 26.0306L26.0536 25.9327L26.1376 25.8342L26.2207 25.7347L26.3026 25.6346L26.3834 25.5338L26.4632 25.4321L26.5419 25.3298L26.6196 25.2267L26.696 25.123L26.7714 25.0186L26.8458 24.9134L26.9188 24.8078L26.9908 24.7013L27.0616 24.5943L27.1314 24.4866L27.2001 24.3782L27.2675 24.2694L27.3337 24.1599L27.3989 24.0496L27.4628 23.9391L27.5256 23.8278L27.5872 23.716L27.6476 23.6038L27.7068 23.4909L27.7649 23.3774L27.8216 23.2639L27.8773 23.1494L27.9318 23.0346L27.985 22.9194L28.037 22.8037L28.0878 22.6875L28.1373 22.571L28.1857 22.4539L28.2328 22.3365L28.2787 22.219L28.3233 22.1006L28.3667 21.9822L28.4089 21.8632L28.4499 21.744L28.4896 21.6244L28.5279 21.5048L28.5652 21.3843L28.601 21.264L28.6356 21.1433L28.6691 21.0224L28.7012 20.901L28.732 20.7797L28.7617 20.6579L28.79 20.5359L28.8172 20.4138L28.843 20.2914L28.8675 20.1691L28.8908 20.0462L28.9128 19.9237L28.9335 19.8006L28.9529 19.6775L28.9711 19.5544L28.988 19.431L29.0036 19.3078L29.018 19.1841L29.0311 19.0608L29.0429 18.9371L29.0534 18.8137L29.0627 18.6898L29.0707 18.5665L29.0774 18.4427L29.0828 18.3189L29.087 18.1954L29.09 18.0721L29.0916 17.9483L29.092 17.8248L29.0911 17.7014L29.0889 17.5782L29.0855 17.4549L29.0808 17.3321L29.0748 17.2088L29.0676 17.0861L29.0592 16.9634L29.0495 16.841L29.0385 16.7185L29.0264 16.5965L29.0129 16.4744L28.9982 16.3527L28.9823 16.2311L28.9652 16.1099L28.9467 15.9886L28.9271 15.8679L28.9063 15.7476L28.8842 15.6272L28.8608 15.5072L28.8364 15.3877L28.8106 15.2681L28.7838 15.1494L28.7556 15.0305L28.7264 14.9124L28.6957 14.7942L28.664 14.6768L28.6312 14.5596L28.5971 14.4426L28.5619 14.3264L28.5255 14.2106L28.4878 14.0948L28.4492 13.9799L28.4092 13.8651L28.3682 13.751L28.326 13.6372L28.2827 13.5242L28.2381 13.4113L28.1925 13.299L28.1459 13.1875L28.0981 13.0765L28.049 12.9656L27.9992 12.8558L27.9479 12.746L27.8957 12.6373L27.8424 12.529L27.788 12.421L27.7326 12.314L27.676 12.2074L27.6184 12.1014L27.56 11.9963L27.5002 11.8915L27.4396 11.7876L27.3777 11.6842L27.3152 11.5818L27.2512 11.4796L27.1866 11.3784L27.1208 11.2777L27.054 11.1778L26.9864 11.0789L26.9176 10.9803L26.848 10.8826L26.7774 10.7857L26.7058 10.6896L26.6333 10.5941L26.5599 10.4995L26.4856 10.4056L26.4103 10.3126L26.3341 10.2203L26.257 10.1288L26.179 10.0382L26.1002 9.94832L26.0206 9.85936L25.94 9.7712L25.8584 9.68376L25.7764 9.59752L25.6931 9.51176L25.6093 9.4272L25.5246 9.34328L25.4392 9.2604L25.3526 9.17816L25.2657 9.0972L25.1777 9.01688L25.089 8.93752L24.9998 8.8592L24.9097 8.78176L24.8186 8.70504L24.727 8.62944L24.6348 8.5548L24.5417 8.48112L24.448 8.40832L24.3537 8.33672L24.2584 8.26568L24.1628 8.196L24.0664 8.1272L23.9693 8.05928L23.8718 7.99248L23.7732 7.92648L23.6747 7.86184L23.575 7.79792L23.475 7.73512L23.3742 7.67328L23.273 7.61248L23.1712 7.5528L23.0691 7.49424L22.966 7.4364L22.8628 7.37992L22.7588 7.32432L22.6544 7.26984L22.5496 7.21648L22.4442 7.16408L22.3384 7.11272L22.2321 7.06256L22.1253 7.01336L22.0183 6.96536L21.9107 6.91832L21.7992 6.87096L21.6944 6.82768L21.5854 6.78384L21.4765 6.74136L21.3668 6.69968L21.257 6.65936L21.1468 6.62L21.0363 6.58184L20.9253 6.54464L20.8143 6.50872L20.7028 6.47384L20.591 6.44008L20.4792 6.40752L20.3668 6.37597L20.2541 6.3455L20.1416 6.31628L20.0288 6.28817L19.9152 6.26109L19.8021 6.23526L19.6884 6.21046L19.5748 6.18686L19.4607 6.16433L19.3468 6.14298L19.2325 6.12274L19.1184 6.10368L19.0036 6.08568L18.8892 6.06887L18.7746 6.05318L18.6598 6.03861L18.545 6.02518L18.4302 6.01291L18.3153 6.00176L18.2004 5.99174L18.0853 5.98286L17.9702 5.9751L17.8554 5.96849L17.7405 5.96301L17.6252 5.95865L17.5106 5.95543L17.3957 5.95334L17.2809 5.95238L17.166 5.95254L17.1429 5.9528L17.1792 9.01056L17.2444 9.01024L17.3283 9.01072L17.4122 9.012L17.4962 9.01416L17.5803 9.01712L17.6644 9.02096L17.7484 9.0256L17.8326 9.03104L17.9168 9.03736L18.0009 9.04448L18.0851 9.05248L18.1692 9.06128L18.2533 9.07096L18.3374 9.08144L18.4214 9.09272L18.5054 9.10496L18.5893 9.11792L18.6732 9.13176L18.757 9.14648L18.8407 9.162L18.9243 9.1784L19.0078 9.1956L19.0912 9.2136L19.1745 9.23248L19.2576 9.25224L19.3407 9.2728L19.4235 9.29416L19.5062 9.3164L19.5888 9.33944L19.6712 9.36336L19.7534 9.38808L19.8354 9.4136L19.9172 9.44L19.9988 9.4672L20.0802 9.49528L20.1613 9.52416L20.2423 9.55384L20.3229 9.58432L20.4034 9.61568L20.4836 9.64784L20.5635 9.6808L20.6431 9.71464L20.7224 9.7492L20.8015 9.78464L20.8802 9.8208L20.9586 9.85784L21.0368 9.89568L21.1145 9.93432L21.192 9.97376L21.2691 10.014L21.3458 10.055L21.4222 10.0968L21.4982 10.1394L21.5738 10.1827L21.6491 10.2269L21.724 10.2718L21.7984 10.3175L21.8724 10.364L21.946 10.4113L22.0192 10.4593L22.0919 10.508L22.1642 10.5575L22.236 10.6078L22.3074 10.6588L22.3783 10.7106L22.4487 10.7631L22.5187 10.8163L22.588 10.8703L22.657 10.925L22.7254 10.9804L22.7933 11.0366L22.8607 11.0934L22.9276 11.151L22.9939 11.2092L23.0596 11.2682L23.1248 11.3278L23.1894 11.3882L23.2535 11.4492L23.3169 11.5109L23.3798 11.5733L23.4421 11.6363L23.5038 11.7001L23.5649 11.7644L23.6253 11.8294L23.6852 11.8951L23.7444 11.9614L23.8029 12.0283L23.8608 12.0959L23.9181 12.1641L23.9748 12.2329L24.0307 12.3023L24.086 12.3723L24.1405 12.443L24.1944 12.5142L24.2476 12.586L24.3001 12.6583L24.352 12.7313L24.403 12.8048L24.4534 12.8789L24.503 12.9535L24.5519 13.0286L24.6 13.1044L24.6475 13.1806L24.6942 13.2574L24.7401 13.3346L24.7852 13.4125L24.8296 13.4907L24.8732 13.5695L24.916 13.6488L24.9581 13.7286L24.9994 13.8088L25.0398 13.8895L25.0795 13.9707L25.1184 14.0523L25.1564 14.1343L25.1936 14.2169L25.23 14.2998L25.2656 14.3831L25.3003 14.4669L25.3342 14.551L25.3672 14.6356L25.3994 14.7205L25.4308 14.8058L25.4612 14.8915L25.4909 14.9776L25.5197 15.064L25.5476 15.1508L25.5746 15.2378L25.6008 15.3253L25.626 15.413L25.6504 15.5011L25.6739 15.5895L25.6965 15.6782L25.7182 15.7671L25.739 15.8563L25.7589 15.9458L25.7779 16.0356L25.796 16.1256L25.8131 16.2158L25.8293 16.3064L25.8447 16.3971L25.8591 16.488L25.8725 16.5792L25.8851 16.6705L25.8967 16.762L25.9074 16.8538L25.9171 16.9457L25.9259 17.0377L25.9338 17.1299L25.9407 17.2222L25.9467 17.3147L25.9516 17.4073L25.9557 17.5L25.9588 17.5929L25.961 17.6858L25.9622 17.7788L25.9624 17.8719L25.9617 17.965L25.96 18.0582L25.9574 18.1515L25.9538 18.2449L25.9492 18.3382L25.9437 18.4315L25.9372 18.525L25.9298 18.6183L25.9213 18.7117L25.912 18.805L25.9016 18.8983L25.8903 18.9917L25.878 19.0849L25.8647 19.1781L25.8504 19.2712L25.8352 19.3642L25.8191 19.4572L25.8019 19.5501L25.7838 19.6429L25.7647 19.7355L25.7446 19.8281L25.7236 19.9205L25.7016 20.0127L25.6787 20.1048L25.6548 20.1968L25.6299 20.2886L25.604 20.3802L25.5772 20.4715L25.5495 20.5627L25.5208 20.6538L25.491 20.7446L25.4604 20.835L25.4288 20.9254L25.3963 21.0154L25.3628 21.1052L25.3283 21.1947L25.2929 21.284L25.2566 21.373L25.2193 21.4617L25.1811 21.55L25.142 21.6381L25.1019 21.7258L25.0608 21.8132L25.0189 21.9002L24.976 21.987L24.9322 22.0733L24.8875 22.1593L24.8419 22.2448L24.7953 22.33L24.7479 22.4148L24.6996 22.4992L24.6503 22.5831L24.6001 22.6667L24.5491 22.7498L24.4972 22.8325L24.4443 22.9146L24.3906 22.9964L24.336 23.0776L24.2805 23.1584L24.2242 23.2387L24.167 23.3185L24.1089 23.3978L24.05 23.4766L23.9903 23.5548L23.9296 23.6325L23.8682 23.7096L23.8059 23.7862L23.7428 23.8622L23.6788 23.9378L23.614 24.0126L23.5484 24.087L23.482 24.1606L23.4148 24.2338L23.3468 24.3062L23.2781 24.3782L23.2085 24.4494L23.1382 24.52L23.067 24.5899L22.9952 24.6593L22.9224 24.7279L22.8491 24.7958L22.7749 24.8632L22.7 24.9298L22.6244 24.9957L22.548 25.061L22.4709 25.1254L22.3931 25.1893L22.3146 25.2523L22.2353 25.3146L22.1554 25.3762L22.0748 25.4371L21.9936 25.4972L21.9116 25.5566L21.829 25.6152L21.7457 25.673L21.6618 25.73L21.5772 25.7862L21.492 25.8417L21.4061 25.8963L21.3197 25.9502L21.2326 26.0031L21.145 26.0554L21.0567 26.1067L20.9679 26.1572L20.8784 26.2069L20.7884 26.2558L20.6979 26.3038L20.6068 26.3509L20.5151 26.3971L20.4229 26.4425L20.3302 26.487L20.2369 26.5306L20.1432 26.5734L20.0489 26.6152L19.9542 26.6562L19.8589 26.6962L19.7632 26.7353L19.6671 26.7735L19.5704 26.8108L19.4734 26.8472L19.3759 26.8826L19.278 26.9171L19.1796 26.9506L19.0808 26.9833L18.9816 27.0149L18.8821 27.0456L18.7822 27.0754L18.6819 27.1041L18.5812 27.1319L18.4802 27.1587L18.3788 27.1846L18.2772 27.2094L18.1752 27.2334L18.0728 27.2562L17.9702 27.2782L17.8672 27.299L17.764 27.319L17.6606 27.3379L17.5568 27.3558L17.4528 27.3727L17.3487 27.3886L17.2442 27.4034L17.1395 27.4173L17.0346 27.4302L16.9296 27.4419L16.8243 27.4527L16.7188 27.4625L16.6132 27.4712L16.5075 27.4789L16.4016 27.4855L16.2955 27.4911L16.1893 27.4957L16.083 27.4992L15.9766 27.5017L15.8701 27.5031L15.7635 27.5035L15.6568 27.5029L15.5502 27.5011L15.4434 27.4984L15.3366 27.4946L15.2298 27.4897L15.1229 27.4838L15.0161 27.4768L14.9092 27.4688L14.8024 27.4597L14.6956 27.4495L14.5888 27.4383L14.4821 27.4261L14.3755 27.4128L14.2688 27.3984L14.1624 27.383L14.056 27.3665L13.9496 27.349L13.8434 27.3303L13.7373 27.3107L13.6314 27.29L13.5256 27.2682L13.42 27.2454L13.3145 27.2215L13.2092 27.1966L13.1041 27.1706L12.9992 27.1435L12.8945 27.1154L12.79 27.0863L12.6859 27.0562L12.5819 27.025L12.4781 26.9927L12.3747 26.9594L12.2716 26.925L12.1686 26.8897L12.066 26.8533L11.9638 26.8158L11.8618 26.7774L11.7602 26.7378L11.6589 26.6974L11.558 26.6558L11.4574 26.6132L11.3572 26.5697L11.2575 26.525L11.158 26.4794L11.0591 26.4329L10.9605 26.3853L10.8624 26.3366L10.7646 26.287L10.6674 26.2365L10.5706 26.1849L10.4743 26.1323L10.3784 26.0788L10.2831 26.0242L10.1882 25.9688L10.0939 25.9123L10 25.8549L9.90676 25.7966L9.81404 25.7372L9.72188 25.677L9.63028 25.6157L9.53924 25.5535L9.44876 25.4905L9.35892 25.4265L9.26964 25.3615L9.181 25.2957L9.09292 25.2289L9.00556 25.1612L8.91884 25.0926L8.83276 25.0231L8.74732 24.9528L8.66252 24.8815L8.57844 24.8094L8.49508 24.7364L8.41236 24.6626L8.33036 24.5878L8.24916 24.5123L8.1686 24.4359L8.08876 24.3586L8.00972 24.2806L7.93148 24.2017L7.85396 24.1219L7.77716 24.0414L7.70116 23.9601L7.62604 23.878L7.55164 23.795L7.47804 23.7114L7.40532 23.6269L7.33332 23.5417L7.26228 23.4557L7.19196 23.3689L7.1226 23.2814L7.05404 23.1932L6.98636 23.1042L6.91956 23.0146L6.85356 22.9242L6.78852 22.8331L6.72444 22.7414L6.66116 22.6489L6.59884 22.5558L6.53745 22.462L6.47698 22.3675L6.41744 22.2724L6.35884 22.1766L6.30119 22.0802L6.24451 21.9833L6.18878 21.8856L6.13402 21.7874L6.08024 21.6886L6.02745 21.5892L5.97564 21.4892L5.92484 21.3886L5.87504 21.2875L5.82624 21.1858L5.77847 21.0837L5.73172 20.9809L5.68599 20.8777L5.6413 20.7739L5.59765 20.6696L5.55504 20.5649L5.5135 20.4597L5.473 20.3539L5.43357 20.2478L5.3952 20.1412L5.35792 20.0341L5.32171 19.9266L5.28658 19.8187L5.25254 19.7104L5.2196 19.6018L5.18775 19.4926L5.157 19.3832L5.12736 19.2734L5.09884 19.1631L5.07143 19.0526L5.04514 18.9418L5.01998 18.8306L4.99594 18.719L4.97304 18.6073L4.95127 18.4952L4.93063 18.3828L4.91115 18.2702L4.89281 18.1573L4.87562 18.0442L4.85958 17.9308L4.8447 17.8172L4.83098 17.7034L4.81842 17.5894L4.80702 17.4752L4.79679 17.3608L4.78773 17.2462L4.77984 17.1316L4.77312 17.0167L4.76759 16.9018L4.76323 16.7867L4.76005 16.6715L4.75805 16.5562L4.75724 16.4408L4.75761 16.3254L4.75916 16.2098L4.76192 16.0943L4.76584 15.9787L4.77097 15.863L4.77729 15.7474L4.7848 15.6318L4.7935 15.5162L4.80339 15.4005L4.81448 15.285L4.82676 15.1694L4.84024 15.0539L4.85491 14.9385L4.87077 14.8231L4.88783 14.7078L4.90608 14.5927L4.92552 14.4777L4.94616 14.3628L4.968 14.248L4.99102 14.1334L5.01523 14.019L5.04064 13.9046L5.06723 13.7906L5.095 13.6766L5.12396 13.563L5.15412 13.4495L5.18544 13.3362L5.21796 13.2233L5.25165 13.1106L5.28652 12.9981L5.32256 12.8858L5.35978 12.774L5.39816 12.6624L5.43772 12.5511L5.47844 12.4402L5.52032 12.3295L5.56336 12.2193L5.60756 12.1094L5.65292 11.9998L5.69942 11.8907L5.74707 11.7819L5.79587 11.6736L5.8458 11.5657L5.89687 11.4582L5.94907 11.3511L6.0024 11.2446L6.05686 11.1384L6.11244 11.0328L6.16912 10.9276L6.22693 10.823L6.28584 10.7188L6.34585 10.6151L6.40696 10.5121L6.46917 10.4095L6.53246 10.3075L6.59684 10.2061L6.66228 10.1052L6.72884 10.005L6.79636 9.90528L6.86508 9.80624L6.93476 9.70776L7.00548 9.60992L7.07732 9.5128L7.15012 9.41624L7.22404 9.3204L7.29892 9.2252L7.37484 9.13072L7.45172 9.03696L7.52964 8.94384L7.6086 8.85144L7.68852 8.75976L7.7694 8.66888L7.85132 8.57872L7.93412 8.48928L8.01796 8.40064L8.10276 8.31272L8.18844 8.22568L8.27508 8.13936L8.36268 8.05384L8.45124 7.9692L8.54068 7.88528L8.631 7.80232L8.72228 7.72008L8.81444 7.6388L8.9074 7.55832L9.00132 7.47872L9.09612 7.4L9.19172 7.32216L9.2882 7.2452L9.38556 7.1692L9.48372 7.09408L9.58268 7.01992L9.68252 6.94664L9.78308 6.87432L9.88444 6.80296L9.98668 6.73256L10.0896 6.66312L10.1933 6.59472L10.2979 6.5272L10.4031 6.46072L10.5091 6.39523L10.6158 6.33074L10.7232 6.26727L10.8313 6.20482L10.9402 6.1434L11.0497 6.08301L11.1599 6.02367L11.2708 5.96538L11.3823 5.90815L11.4944 5.85198L11.6072 5.79689L11.7207 5.74287L11.8348 5.68994L11.9494 5.6381L12.0647 5.58736L12.1805 5.53773L12.2969 5.48921L12.4139 5.4418L12.5313 5.39552L12.6494 5.35037L12.768 5.30635L12.8871 5.26348L13.0067 5.22175L13.1268 5.18118L13.2473 5.14176L13.3683 5.10351L13.4898 5.06642L13.6117 5.03051L13.7341 4.99578L13.8568 4.96223L13.98 4.92987L14.1036 4.8987L14.2276 4.86874L14.352 4.83998L14.4767 4.81241L14.6017 4.78606L14.7271 4.76092L14.8528 4.73701L14.9788 4.71431L15.1052 4.69284L15.2318 4.6726L15.3587 4.65359L15.4858 4.63582L15.6132 4.61929L15.6607 4.61359ZM15.7144 9.14888L15.6778 6.05751L15.5734 6.0721L15.4612 6.08893L15.3488 6.10687L15.2372 6.12584L15.1255 6.14597L15.0143 6.16713L14.9033 6.18938L14.7928 6.21266L14.6824 6.23706L14.5724 6.26253L14.4626 6.28905L14.3533 6.31662L14.2441 6.34529L14.1392 6.37392L14.0275 6.40568L13.9196 6.43744L13.8121 6.47024L13.7052 6.504L13.5986 6.53888L13.4924 6.5748L13.3866 6.61168L13.2814 6.64952L13.1766 6.68848L13.0723 6.72832L12.9684 6.76928L12.8652 6.81112L12.7621 6.85408L12.6598 6.89792L12.558 6.94272L12.4568 6.98848L12.356 7.03528L12.2556 7.08304L12.1562 7.1316L12.0569 7.18128L11.9587 7.23176L11.8606 7.28336L11.7635 7.3356L11.6665 7.38912L11.5705 7.4432L11.4752 7.49832L11.3803 7.5544L11.2861 7.61128L11.1924 7.6692L11.0997 7.72776L11.0074 7.78736L10.916 7.84776L10.8252 7.90896L10.735 7.97112L10.6454 8.03416L10.5568 8.09776L10.4688 8.16248L10.3814 8.22792L10.2948 8.29416L10.2091 8.36112L10.1239 8.42904L10.0396 8.4976L9.95612 8.56696L9.87324 8.63728L9.7914 8.70808L9.71012 8.77984L9.62964 8.85232L9.55004 8.92544L9.47132 8.99928L9.39316 9.074L9.31612 9.1492L9.2398 9.2252L9.1642 9.302L9.08956 9.37936L9.01572 9.45752L8.94276 9.53624L8.87068 9.6156L8.7994 9.69568L8.72892 9.77648L8.65964 9.85768L8.591 9.93968L8.52324 10.0223L8.45644 10.1054L8.3906 10.1891L8.32548 10.2736L8.2614 10.3585L8.1982 10.444L8.13596 10.5301L8.0746 10.6167L8.01428 10.7038L7.95484 10.7914L7.89628 10.8797L7.83868 10.9684L7.78212 11.0575L7.72652 11.1472L7.6718 11.2375L7.61804 11.3281L7.56532 11.4192L7.51348 11.5108L7.46276 11.6026L7.41292 11.6951L7.36396 11.7881L7.3162 11.8812L7.26932 11.975L7.22348 12.069L7.1786 12.1634L7.13476 12.2582L7.09188 12.3534L7.05004 12.4489L7.00916 12.5447L6.9694 12.6409L6.9306 12.7374L6.89276 12.8342L6.85596 12.9314L6.82028 13.0287L6.78548 13.1265L6.75188 13.2243L6.71916 13.3226L6.68756 13.421L6.65692 13.5198L6.6274 13.6186L6.59884 13.7178L6.5714 13.817L6.54493 13.9166L6.51952 14.0163L6.49516 14.1162L6.47185 14.2163L6.44957 14.3165L6.42833 14.4169L6.40816 14.5174L6.38902 14.6179L6.37092 14.7187L6.35389 14.8195L6.33788 14.9205L6.32295 15.0214L6.30904 15.1225L6.29619 15.2236L6.28438 15.3248L6.27362 15.426L6.26391 15.5273L6.25524 15.6286L6.24763 15.7298L6.24105 15.8311L6.23552 15.9324L6.23103 16.0336L6.22759 16.1348L6.22518 16.2359L6.22382 16.337L6.22349 16.4382L6.2242 16.5391L6.22596 16.64L6.22874 16.7408L6.23255 16.8414L6.2374 16.9421L6.24327 17.0426L6.25016 17.1428L6.25809 17.243L6.26704 17.343L6.277 17.4429L6.28799 17.5426L6.29998 17.6421L6.313 17.7414L6.32701 17.8405L6.34204 17.9394L6.35807 18.038L6.3751 18.1365L6.39313 18.2347L6.41215 18.3326L6.43216 18.4303L6.45316 18.5277L6.47515 18.6249L6.49809 18.7216L6.52204 18.8182L6.54696 18.9144L6.57284 19.0103L6.59964 19.1058L6.62748 19.2011L6.6562 19.296L6.68596 19.3906L6.7166 19.4848L6.7482 19.5786L6.78076 19.6719L6.8142 19.765L6.8486 19.8576L6.88396 19.9498L6.9202 20.0416L6.95732 20.133L6.9954 20.2239L7.03436 20.3144L7.07428 20.4044L7.115 20.494L7.15668 20.583L7.19924 20.6717L7.2426 20.7598L7.28692 20.8474L7.33204 20.9346L7.37804 21.0213L7.42492 21.1074L7.4726 21.193L7.52116 21.278L7.57052 21.3625L7.62076 21.4464L7.6718 21.5298L7.72364 21.6126L7.77628 21.6949L7.8298 21.7766L7.88396 21.8576L7.93908 21.9382L7.99484 22.018L8.05148 22.0973L8.10884 22.1759L8.167 22.2539L8.22588 22.3313L8.28556 22.4081L8.34588 22.4842L8.407 22.5596L8.46884 22.6344L8.5314 22.7086L8.59468 22.7819L8.65868 22.8548L8.72332 22.9268L8.78868 22.9982L8.85468 23.0689L8.9214 23.1389L8.98876 23.2082L9.05684 23.2767L9.12548 23.3446L9.19484 23.4117L9.26484 23.4781L9.33532 23.5437L9.4066 23.6086L9.47836 23.6727L9.55076 23.7361L9.6238 23.7987L9.6974 23.8606L9.77156 23.9217L9.84628 23.9819L9.92156 24.0414L9.9974 24.1002L10.0738 24.1582L10.1508 24.2153L10.2281 24.2716L10.306 24.3271L10.3845 24.3818L10.4635 24.4358L10.543 24.4889L10.6229 24.5411L10.7033 24.5926L10.7842 24.6432L10.8655 24.693L10.9472 24.7419L11.0295 24.79L11.112 24.8372L11.1952 24.8836L11.2785 24.9291L11.3624 24.9738L11.4467 25.0177L11.5312 25.0606L11.6163 25.1027L11.7017 25.1439L11.7874 25.1843L11.8734 25.2238L11.9599 25.2624L12.0465 25.3001L12.1336 25.3369L12.2209 25.3729L12.3086 25.4079L12.3964 25.4421L12.4847 25.4754L12.5732 25.5078L12.6619 25.5393L12.7508 25.5698L12.8401 25.5996L12.9296 25.6283L13.0192 25.6562L13.1092 25.6832L13.1992 25.7093L13.2895 25.7345L13.38 25.7587L13.4706 25.7822L13.5614 25.8046L13.6524 25.8261L13.7435 25.8467L13.8348 25.8665L13.9261 25.8853L14.0176 25.9031L14.1092 25.9201L14.2008 25.9362L14.2927 25.9514L14.3845 25.9655L14.4764 25.9789L14.5684 25.9913L14.6604 26.0028L14.7525 26.0134L14.8446 26.023L14.9368 26.0318L15.0289 26.0396L15.1211 26.0465L15.2132 26.0526L15.3053 26.0576L15.3974 26.0618L15.4896 26.0651L15.5816 26.0675L15.6735 26.069L15.7654 26.0695L15.8572 26.0692L15.949 26.0679L16.0407 26.0658L16.1322 26.0628L16.2237 26.0589L16.315 26.054L16.4062 26.0483L16.4972 26.0417L16.5882 26.0342L16.6789 26.0258L16.7696 26.0165L16.86 26.0063L16.9503 25.9953L17.0404 25.9834L17.1302 25.9706L17.2199 25.957L17.3093 25.9424L17.3984 25.927L17.4875 25.9107L17.5762 25.8936L17.6647 25.8757L17.753 25.8568L17.8408 25.8371L17.9285 25.8166L18.0159 25.7952L18.103 25.773L18.1898 25.75L18.2763 25.7261L18.3624 25.7014L18.4483 25.6758L18.5337 25.6495L18.6188 25.6223L18.7037 25.5943L18.7881 25.5655L18.8722 25.5359L18.9559 25.5055L19.0392 25.4743L19.122 25.4423L19.2045 25.4095L19.2867 25.3759L19.3684 25.3416L19.4496 25.3065L19.5304 25.2706L19.6108 25.234L19.6908 25.1966L19.7703 25.1584L19.8492 25.1196L19.9279 25.0798L20.0059 25.0395L20.0836 24.9983L20.1605 24.9566L20.2372 24.914L20.3133 24.8707L20.3888 24.8267L20.464 24.782L20.5385 24.7366L20.6124 24.6906L20.686 24.6438L20.7588 24.5964L20.8312 24.5482L20.9032 24.4994L20.9744 24.4499L21.0449 24.3999L21.1152 24.349L21.1846 24.2978L21.2536 24.2457L21.322 24.193L21.3895 24.1398L21.4568 24.0858L21.5233 24.0312L21.589 23.9762L21.6544 23.9202L21.719 23.864L21.7829 23.8072L21.8464 23.7495L21.909 23.6916L21.9711 23.633L22.0325 23.5738L22.0932 23.5141L22.1532 23.4538L22.2127 23.393L22.2714 23.3316L22.3293 23.2698L22.3867 23.2074L22.4434 23.1445L22.4992 23.0812L22.5546 23.0172L22.6091 22.9529L22.6628 22.8881L22.716 22.8226L22.7684 22.757L22.82 22.6907L22.871 22.6241L22.9212 22.5569L22.9707 22.4894L23.0193 22.4215L23.0674 22.353L23.1146 22.2842L23.1611 22.215L23.2069 22.1454L23.2517 22.0755L23.296 22.0051L23.3395 21.9343L23.3822 21.8633L23.424 21.7918L23.4653 21.7199L23.5056 21.648L23.5452 21.5754L23.584 21.5026L23.622 21.4296L23.6593 21.356L23.6956 21.2826L23.7314 21.2083L23.7661 21.1343L23.8004 21.0595L23.8335 20.9849L23.866 20.9096L23.8977 20.8344L23.9285 20.7589L23.9586 20.683L23.9879 20.607L24.0162 20.5309L24.044 20.4543L24.0707 20.3777L24.0967 20.3009L24.1219 20.2238L24.1463 20.1466L24.1699 20.0692L24.1926 19.9918L24.2145 19.914L24.2356 19.8362L24.2559 19.7582L24.2753 19.6802L24.294 19.6021L24.3118 19.5236L24.3288 19.4452L24.345 19.3667L24.3603 19.2882L24.3748 19.2096L24.3885 19.1306L24.4014 19.052L24.4135 18.9731L24.4247 18.8942L24.4351 18.8154L24.4447 18.7364L24.4535 18.6572L24.4614 18.5786L24.4686 18.4993L24.4749 18.4203L24.4804 18.3415L24.4851 18.2625L24.4889 18.1836L24.492 18.1048L24.4942 18.0258L24.4956 17.9472L24.4962 17.8683L24.496 17.7897L24.495 17.711L24.4932 17.6327L24.4905 17.5542L24.4871 17.4759L24.4828 17.3979L24.4778 17.3197L24.472 17.2417L24.4654 17.1641L24.458 17.0862L24.4497 17.0089L24.4407 16.9314L24.4309 16.8542L24.4204 16.7772L24.409 16.7002L24.3968 16.6236L24.384 16.5472L24.3703 16.471L24.3558 16.395L24.3405 16.3189L24.3245 16.2434L24.3078 16.1681L24.2903 16.0929L24.272 16.0178L24.253 15.9434L24.2332 15.8688L24.2127 15.7948L24.1914 15.7209L24.1694 15.6474L24.1467 15.5741L24.1232 15.501L24.099 15.4285L24.0741 15.3562L24.0484 15.2839L24.0221 15.2123L23.995 15.1409L23.9672 15.0699L23.9388 14.9991L23.9096 14.9286L23.8797 14.8588L23.8491 14.789L23.8179 14.7198L23.786 14.651L23.7533 14.5824L23.72 14.5142L23.6861 14.4466L23.6514 14.3791L23.6162 14.3123L23.5803 14.2459L23.5436 14.1796L23.5065 14.1141L23.4686 14.0488L23.4301 13.9841L23.3909 13.9196L23.3513 13.8558L23.3108 13.7922L23.27 13.7294L23.2284 13.6669L23.1862 13.6049L23.1433 13.5432L23.1 13.4822L23.0561 13.4217L23.0115 13.3614L22.9664 13.3019L22.9207 13.2428L22.8746 13.1843L22.8277 13.1262L22.7804 13.0686L22.7324 13.0116L22.684 12.955L22.6352 12.8992L22.5856 12.8437L22.5356 12.7889L22.4851 12.7345L22.4342 12.6809L22.3825 12.6275L22.3306 12.575L22.278 12.5227L22.225 12.4713L22.1716 12.4204L22.1177 12.37L22.0632 12.3202L22.0084 12.271L21.9531 12.2225L21.8972 12.1743L21.8412 12.1271L21.7845 12.0802L21.7275 12.034L21.67 11.9885L21.6121 11.9434L21.5539 11.899L21.4954 11.8554L21.4362 11.8122L21.3766 11.7696L21.317 11.7279L21.2566 11.6866L21.1963 11.6462L21.1354 11.6062L21.0741 11.5668L21.0124 11.5281L20.9507 11.4902L20.8883 11.4527L20.8258 11.4161L20.7628 11.3799L20.6998 11.3446L20.6363 11.3099L20.5724 11.2758L20.5084 11.2423L20.4441 11.2097L20.3795 11.1775L20.3145 11.1461L20.2495 11.1154L20.1843 11.0854L20.1184 11.0558L20.0528 11.0272L19.9867 10.9992L19.9203 10.9718L19.8538 10.9451L19.7872 10.9192L19.7204 10.8939L19.6531 10.8692L19.586 10.8454L19.5184 10.8221L19.4508 10.7995L19.3832 10.7777L19.3152 10.7566L19.2473 10.7361L19.1788 10.7162L19.1106 10.6972L19.0422 10.6788L18.9736 10.6611L18.905 10.6441L18.836 10.6278L18.7672 10.6122L18.6984 10.5973L18.6293 10.583L18.56 10.5694L18.4912 10.5567L18.4218 10.5446L18.3526 10.5331L18.2831 10.5223L18.214 10.5123L18.1443 10.5029L18.0751 10.4943L18.0056 10.4863L17.9362 10.479L17.8668 10.4725L17.7973 10.4666L17.7281 10.4614L17.6585 10.4569L17.5892 10.453L17.5201 10.4499L17.4505 10.4474L17.3815 10.4457L17.3124 10.4446L17.2433 10.4442L17.1961 10.4444L17.2319 13.4647L17.2532 13.4648L17.2929 13.4654L17.3327 13.4663L17.3725 13.4676L17.4124 13.4694L17.4523 13.4716L17.4922 13.4742L17.5322 13.4772L17.5722 13.4806L17.6123 13.4845L17.6524 13.4887L17.6924 13.4934L17.7326 13.4985L17.7727 13.504L17.8128 13.5099L17.853 13.5163L17.8932 13.5231L17.9332 13.5303L17.9734 13.538L18.0135 13.546L18.0536 13.5546L18.0936 13.5634L18.1337 13.5728L18.1736 13.5826L18.2136 13.5927L18.2536 13.6034L18.2934 13.6144L18.3332 13.6258L18.373 13.6378L18.4127 13.6501L18.4523 13.6629L18.4919 13.6761L18.5313 13.6897L18.5708 13.7037L18.61 13.7182L18.6492 13.733L18.6884 13.7483L18.7274 13.7641L18.7663 13.7802L18.8051 13.7968L18.8438 13.8138L18.8824 13.8313L18.9208 13.8491L18.9592 13.8674L18.9973 13.8861L19.0354 13.9052L19.0732 13.9248L19.111 13.9447L19.1486 13.9651L19.186 13.9859L19.2233 14.0071L19.2604 14.0287L19.2973 14.0507L19.3341 14.0732L19.3707 14.0961L19.4071 14.1194L19.4432 14.143L19.4792 14.167L19.5151 14.1916L19.5507 14.2165L19.586 14.2418L19.6212 14.2674L19.6562 14.2935L19.6909 14.32L19.7254 14.3469L19.7597 14.3742L19.7937 14.4018L19.8275 14.4298L19.8611 14.4583L19.8944 14.4871L19.9274 14.5163L19.9602 14.5459L19.9927 14.5759L20.0249 14.6062L20.0568 14.637L20.0886 14.6681L20.12 14.6995L20.1511 14.7314L20.182 14.7635L20.2124 14.7961L20.2427 14.829L20.2726 14.8623L20.3023 14.8959L20.3316 14.9299L20.3605 14.9642L20.3892 14.9989L20.4176 15.0339L20.4456 15.0693L20.4732 15.105L20.5006 15.141L20.5276 15.1774L20.5543 15.2141L20.5805 15.251L20.6065 15.2884L20.6321 15.3261L20.6573 15.3641L20.6822 15.4023L20.7068 15.441L20.7308 15.4798L20.7546 15.519L20.778 15.5586L20.8009 15.5983L20.8236 15.6384L20.8457 15.6788L20.8676 15.7194L20.889 15.7604L20.91 15.8016L20.9306 15.843L20.9508 15.8848L20.9705 15.9269L20.9899 15.9691L21.0088 16.0117L21.0274 16.0545L21.0455 16.0975L21.0632 16.1408L21.0804 16.1843L21.0972 16.2281L21.1136 16.2721L21.1295 16.3163L21.1449 16.3608L21.16 16.4054L21.1745 16.4503L21.1886 16.4954L21.2023 16.5407L21.2155 16.5862L21.2282 16.632L21.2405 16.6778L21.2524 16.7239L21.2636 16.7702L21.2745 16.8167L21.2849 16.8633L21.2948 16.9102L21.3043 16.9571L21.3132 17.0042L21.3216 17.0515L21.3296 17.099L21.3372 17.1465L21.3441 17.1942L21.3506 17.2421L21.3566 17.2901L21.3621 17.3382L21.3672 17.3865L21.3716 17.4348L21.3756 17.4833L21.3792 17.5319L21.3821 17.5806L21.3846 17.6294L21.3865 17.6782L21.388 17.7272L21.3889 17.7762L21.3894 17.8254L21.3892 17.8745L21.3887 17.9238L21.3876 17.9731L21.3859 18.0225L21.3837 18.0719L21.381 18.1214L21.3778 18.1709L21.374 18.2204L21.3697 18.27L21.3649 18.3196L21.3596 18.3692L21.3537 18.4188L21.3473 18.4685L21.3404 18.5182L21.333 18.5678L21.325 18.6174L21.3164 18.667L21.3074 18.7166L21.2978 18.7662L21.2877 18.8157L21.277 18.8652L21.2658 18.9146L21.2541 18.9641L21.2418 19.0134L21.229 19.0628L21.2157 19.112L21.2018 19.1612L21.1874 19.2102L21.1724 19.2593L21.157 19.3082L21.141 19.357L21.1244 19.4058L21.1074 19.4545L21.0897 19.503L21.0716 19.5514L21.0529 19.5997L21.0337 19.6479L21.014 19.6959L20.9937 19.7438L20.9729 19.7916L20.9516 19.8393L20.9297 19.8867L20.9073 19.934L20.8844 19.9812L20.861 20.0282L20.837 20.075L20.8125 20.1216L20.7875 20.168L20.762 20.2142L20.736 20.2603L20.7094 20.3062L20.6823 20.3518L20.6548 20.3972L20.6266 20.4425L20.598 20.4874L20.5689 20.5322L20.5392 20.5767L20.5092 20.621L20.4785 20.665L20.4474 20.7088L20.4157 20.7523L20.3836 20.7956L20.351 20.8386L20.3179 20.8813L20.2843 20.9238L20.2502 20.9659L20.2156 21.0078L20.1806 21.0494L20.1451 21.0906L20.109 21.1316L20.0725 21.1722L20.0356 21.2126L19.9981 21.2526L19.9603 21.2923L19.9219 21.3318L19.8831 21.3708L19.8438 21.4094L19.8041 21.4478L19.7639 21.4858L19.7232 21.5234L19.6822 21.5607L19.6407 21.5977L19.5988 21.6342L19.5564 21.6704L19.5136 21.7062L19.4703 21.7416L19.4266 21.7766L19.3825 21.8112L19.338 21.8454L19.2932 21.8793L19.2478 21.9127L19.2021 21.9457L19.156 21.9782L19.1095 22.0105L19.0625 22.0422L19.0152 22.0735L18.9676 22.1043L18.9195 22.1348L18.871 22.1648L18.8222 22.1943L18.773 22.2234L18.7235 22.252L18.6736 22.2802L18.6232 22.3078L18.5727 22.3351L18.5217 22.3618L18.4704 22.3882L18.4188 22.4139L18.3668 22.4393L18.3145 22.4641L18.2619 22.4884L18.209 22.5122L18.1557 22.5355L18.1022 22.5584L18.0484 22.5807L17.9942 22.6025L17.9397 22.6238L17.885 22.6446L17.83 22.6648L17.7747 22.6846L17.7192 22.7038L17.6633 22.7224L17.6072 22.7406L17.5509 22.7581L17.4944 22.7751L17.4375 22.7917L17.3804 22.8076L17.3232 22.823L17.2656 22.8378L17.2079 22.8522L17.1499 22.8658L17.0917 22.879L17.0333 22.8916L16.9748 22.9037L16.916 22.9151L16.857 22.926L16.7979 22.9363L16.7385 22.9461L16.6791 22.9552L16.6194 22.9638L16.5596 22.9718L16.4996 22.9792L16.4396 22.986L16.3793 22.9922L16.3189 22.9978L16.2584 23.0028L16.1978 23.0073L16.137 23.011L16.0762 23.0143L16.0152 23.017L15.9542 23.019L15.893 23.0203L15.8318 23.0211L15.7705 23.0214L15.7092 23.021L15.6477 23.0199L15.5862 23.0182L15.5247 23.016L15.4631 23.0131L15.4014 23.0096L15.3397 23.0055L15.278 23.0008L15.2164 22.9954L15.1546 22.9894L15.0929 22.9829L15.0312 22.9756L14.9695 22.9678L14.9077 22.9593L14.846 22.9502L14.7844 22.9405L14.7228 22.9302L14.6612 22.9192L14.5996 22.9076L14.5381 22.8954L14.4767 22.8826L14.4153 22.8691L14.354 22.855L14.2928 22.8402L14.2316 22.825L14.1706 22.809L14.1097 22.7923L14.0488 22.7751L13.9882 22.7573L13.9276 22.7388L13.8671 22.7197L13.8068 22.7L13.7465 22.6797L13.6865 22.6587L13.6266 22.6371L13.5668 22.6149L13.5073 22.5921L13.4479 22.5686L13.3887 22.5446L13.3296 22.5199L13.2708 22.4946L13.2122 22.4687L13.1537 22.4422L13.0956 22.4151L13.0375 22.3874L12.9797 22.359L12.9222 22.3301L12.8649 22.3006L12.8079 22.2704L12.7511 22.2397L12.6945 22.2083L12.6383 22.1764L12.5822 22.1438L12.5265 22.1107L12.4711 22.077L12.416 22.0427L12.3611 22.0078L12.3065 21.9724L12.2523 21.9363L12.1984 21.8997L12.1448 21.8625L12.0916 21.8247L12.0386 21.7864L11.986 21.7474L11.9338 21.708L11.882 21.668L11.8304 21.6274L11.7793 21.5862L11.7285 21.5446L11.6781 21.5023L11.6281 21.4595L11.5785 21.4162L11.5293 21.3723L11.4805 21.3279L11.4321 21.283L11.3841 21.2375L11.3366 21.1915L11.2894 21.145L11.2428 21.098L11.1965 21.0505L11.1507 21.0024L11.1053 20.9539L11.0604 20.9048L11.016 20.8553L10.972 20.8053L10.9286 20.7547L10.8856 20.7038L10.843 20.6522L10.801 20.6002L10.7595 20.5478L10.7184 20.495L10.6779 20.4416L10.6379 20.3878L10.5984 20.3335L10.5595 20.2788L10.521 20.2236L10.4831 20.168L10.4457 20.112L10.4089 20.0555L10.3727 19.9986L10.3369 19.9414L10.3018 19.8837L10.2672 19.8255L10.2332 19.767L10.1997 19.7081L10.1668 19.6488L10.1345 19.5891L10.1028 19.529L10.0717 19.4686L10.0412 19.4078L10.0112 19.3466L9.98196 19.285L9.95324 19.2232L9.92516 19.161L9.89772 19.0984L9.87084 19.0354L9.8446 18.9722L9.819 18.9086L9.79404 18.8448L9.76972 18.7806L9.74612 18.7161L9.72308 18.6513L9.70068 18.5862L9.67892 18.5209L9.65788 18.4552L9.63748 18.3893L9.61772 18.3231L9.5986 18.2566L9.5802 18.1899L9.56252 18.123L9.5454 18.0558L9.52908 17.9883L9.5134 17.9207L9.49836 17.8528L9.48404 17.7847L9.47044 17.7164L9.45748 17.6479L9.44524 17.5792L9.43372 17.5103L9.42292 17.4413L9.41276 17.372L9.40332 17.3026L9.39468 17.233L9.38668 17.1634L9.3794 17.0934L9.37284 17.0234L9.367 16.9533L9.36188 16.883L9.35748 16.8126L9.3538 16.7422L9.35084 16.6716L9.3486 16.6009L9.34716 16.5301L9.34644 16.4593L9.34636 16.3883L9.34708 16.3173L9.3486 16.2462L9.35076 16.1751L9.35372 16.1039L9.3574 16.0327L9.3618 15.9615L9.36692 15.8902L9.37284 15.819L9.37948 15.7477L9.38684 15.6764L9.395 15.6051L9.40388 15.5338L9.41348 15.4626L9.42388 15.3914L9.435 15.3202L9.44692 15.2491L9.45948 15.178L9.47284 15.107L9.487 15.036L9.50188 14.9651L9.51748 14.8943L9.5338 14.8236L9.55092 14.753L9.56876 14.6825L9.5874 14.6121L9.60676 14.5418L9.62684 14.4717L9.64764 14.4016L9.66924 14.3318L9.69156 14.262L9.7146 14.1924L9.73844 14.123L9.763 14.0538L9.78828 13.9847L9.81428 13.9158L9.84108 13.8472L9.8686 13.7787L9.89684 13.7104L9.9258 13.6424L9.95548 13.5746L9.98596 13.507L10.0171 13.4396L10.049 13.3725L10.0816 13.3057L10.1149 13.239L10.1489 13.1727L10.1837 13.1067L10.2192 13.041L10.2554 12.9755L10.2923 12.9103L10.3299 12.8454L10.3682 12.781L10.4072 12.7167L10.4469 12.6528L10.4874 12.5893L10.5285 12.526L10.5703 12.4631L10.6128 12.4006L10.656 12.3385L10.6998 12.2767L10.7444 12.2154L10.7896 12.1543L10.8354 12.0937L10.882 12.0335L10.9292 11.9737L10.9771 11.9143L11.0256 11.8553L11.0748 11.7968L11.1246 11.7386L11.1751 11.681L11.2262 11.6238L11.278 11.567L11.3304 11.5107L11.3834 11.4549L11.4371 11.3995L11.4913 11.3446L11.5462 11.2902L11.6017 11.2363L11.6578 11.183L11.7145 11.1301L11.7718 11.0777L11.8296 11.0258L11.8881 10.9745L11.9472 10.9238L12.0068 10.8734L12.0671 10.8238L12.1278 10.7746L12.1892 10.726L12.251 10.678L12.3135 10.6306L12.3764 10.5837L12.44 10.5374L12.504 10.4917L12.5686 10.4466L12.6337 10.402L12.6994 10.3581L12.7655 10.3148L12.8321 10.2722L12.8993 10.2301L12.9669 10.1886L13.0351 10.1478L13.1036 10.1077L13.1728 10.0682L13.2423 10.0293L13.3123 9.99104L13.3828 9.95352L13.4536 9.91664L13.525 9.8804L13.5968 9.84488L13.669 9.81L13.7416 9.77584L13.8147 9.74232L13.8881 9.70952L13.962 9.67744L14.0363 9.646L14.1109 9.61528L14.1859 9.58536L14.2613 9.55608L14.3371 9.52752L14.4132 9.49968L14.4896 9.47264L14.5665 9.44624L14.6436 9.42064L14.7212 9.39576L14.7989 9.3716L14.8771 9.34824L14.9555 9.3256L15.0342 9.30376L15.1132 9.28264L15.1925 9.26224L15.2721 9.24264L15.352 9.22384L15.4321 9.20584L15.5124 9.18856L15.5931 9.17208L15.6739 9.1564L15.7144 9.14888ZM16.708 14.9571L15.7859 15.1774L15.7317 10.6098L15.6883 10.6196L15.6228 10.635L15.5575 10.6511L15.4926 10.6678L15.4278 10.685L15.3634 10.703L15.299 10.7216L15.2352 10.7406L15.1713 10.7605L15.1082 10.7807L15.0449 10.8018L14.982 10.8234L14.9195 10.8455L14.8572 10.8682L14.7954 10.8915L14.7337 10.9155L14.6724 10.94L14.6114 10.965L14.5505 10.9908L14.4904 11.0169L14.4304 11.0438L14.3708 11.071L14.3114 11.099L14.2525 11.1274L14.1938 11.1565L14.1357 11.186L14.0779 11.2161L14.0204 11.2467L13.9634 11.2778L13.9067 11.3095L13.8504 11.3418L13.7947 11.3744L13.7389 11.4078L13.6839 11.4414L13.6293 11.4757L13.5751 11.5104L13.5212 11.5457L13.4678 11.5814L13.4148 11.6177L13.3623 11.6543L13.3103 11.6914L13.2585 11.7291L13.2073 11.7673L13.1566 11.8058L13.1063 11.8449L13.0565 11.8842L13.0072 11.9242L12.9583 11.9646L12.9098 12.0054L12.862 12.0466L12.8145 12.0882L12.7676 12.1302L12.7211 12.1727L12.6751 12.2157L12.6296 12.259L12.5847 12.3026L12.5401 12.3467L12.4962 12.3911L12.4528 12.436L12.4099 12.4811L12.3673 12.5269L12.3255 12.5727L12.2841 12.619L12.2432 12.6658L12.203 12.7126L12.1632 12.7601L12.124 12.8076L12.0852 12.8558L12.0472 12.904L12.0095 12.9527L11.9724 13.0018L11.936 13.051L11.9 13.1005L11.8646 13.1503L11.8297 13.2006L11.7954 13.251L11.7617 13.3018L11.7286 13.3526L11.696 13.4038L11.664 13.4554L11.6326 13.5071L11.6016 13.5593L11.5714 13.6114L11.5416 13.6639L11.5124 13.7166L11.484 13.7695L11.456 13.8226L11.4286 13.876L11.4017 13.9297L11.3756 13.9833L11.3499 14.0374L11.3248 14.0914L11.3004 14.1458L11.2765 14.2002L11.2532 14.255L11.2306 14.3097L11.2085 14.3647L11.1871 14.4198L11.1661 14.4751L11.1459 14.5304L11.1262 14.586L11.1071 14.6417L11.0886 14.6974L11.0707 14.7533L11.0534 14.8094L11.0367 14.8654L11.0207 14.9215L11.0052 14.9778L10.9902 15.0342L10.976 15.0906L10.9623 15.1471L10.9492 15.2037L10.9367 15.2603L10.9248 15.317L10.9136 15.3737L10.9028 15.4304L10.8928 15.4873L10.8833 15.544L10.8744 15.6008L10.8661 15.6578L10.8584 15.7145L10.8514 15.7714L10.8449 15.8282L10.839 15.885L10.8337 15.942L10.829 15.9987L10.8249 16.0555L10.8214 16.1123L10.8184 16.169L10.8161 16.2256L10.8144 16.2822L10.8132 16.3388L10.8126 16.3953L10.8127 16.4517L10.8132 16.508L10.8144 16.5643L10.8162 16.6205L10.8185 16.6766L10.8214 16.7326L10.8249 16.7884L10.829 16.8442L10.8336 16.8998L10.8388 16.9554L10.8446 17.0109L10.8509 17.066L10.8578 17.1213L10.8652 17.1762L10.8733 17.2311L10.8819 17.2858L10.891 17.3403L10.9007 17.3948L10.9109 17.449L10.9217 17.503L10.933 17.5568L10.9449 17.6106L10.9573 17.664L10.9703 17.7174L10.9837 17.7703L10.9978 17.8234L11.0123 17.8759L11.0273 17.9285L11.0429 17.9806L11.059 18.0327L11.0756 18.0845L11.0928 18.1359L11.1104 18.1874L11.1286 18.2384L11.1472 18.2891L11.1664 18.3398L11.186 18.3901L11.2062 18.4401L11.2268 18.4898L11.2479 18.5393L11.2696 18.5886L11.2916 18.6375L11.3142 18.6862L11.3372 18.7345L11.3607 18.7825L11.3848 18.8304L11.4091 18.8778L11.434 18.9249L11.4593 18.9718L11.4852 19.0182L11.5114 19.0645L11.538 19.1104L11.5652 19.1558L11.5928 19.2011L11.6207 19.246L11.6491 19.2905L11.678 19.3347L11.7072 19.3786L11.7368 19.4222L11.7668 19.4651L11.7973 19.508L11.8282 19.5504L11.8594 19.5924L11.8912 19.6342L11.9232 19.6754L11.9556 19.7163L11.9884 19.7569L12.0216 19.7971L12.055 19.8368L12.089 19.8762L12.1232 19.9153L12.1578 19.9538L12.1929 19.9921L12.2281 20.0298L12.2638 20.0673L12.2998 20.1042L12.336 20.1408L12.3728 20.177L12.4097 20.2127L12.447 20.2481L12.4846 20.283L12.5225 20.3174L12.5608 20.3515L12.5992 20.3851L12.638 20.4183L12.6771 20.4511L12.7164 20.4834L12.7561 20.5154L12.7961 20.5468L12.8362 20.5778L12.8767 20.6083L12.9174 20.6385L12.9584 20.6682L12.9996 20.6974L13.041 20.7262L13.0827 20.7545L13.1246 20.7823L13.1667 20.8097L13.209 20.8366L13.2517 20.8632L13.2944 20.8891L13.3374 20.9147L13.3807 20.9398L13.424 20.9644L13.4675 20.9886L13.5114 21.0123L13.5553 21.0355L13.5994 21.0582L13.6436 21.0805L13.6882 21.1023L13.7327 21.1236L13.7776 21.1445L13.8224 21.1649L13.8674 21.1847L13.9127 21.2042L13.958 21.2231L14.0034 21.2416L14.049 21.2596L14.0947 21.277L14.1406 21.2941L14.1864 21.3106L14.2325 21.3267L14.2785 21.3422L14.3247 21.3574L14.371 21.372L14.4174 21.3862L14.4638 21.3998L14.5103 21.413L14.5569 21.4256L14.6036 21.4378L14.6502 21.4495L14.6969 21.4608L14.7436 21.4715L14.7904 21.4818L14.8373 21.4916L14.8842 21.5009L14.9311 21.5098L14.978 21.5181L15.0249 21.526L15.0719 21.5334L15.1188 21.5403L15.1656 21.5467L15.2126 21.5526L15.2595 21.5582L15.3064 21.5632L15.3533 21.5677L15.4002 21.5718L15.447 21.5754L15.4937 21.5785L15.5405 21.5811L15.5872 21.5833L15.6337 21.585L15.6804 21.5862L15.7268 21.587L15.7732 21.5874L15.8196 21.5872L15.8659 21.5866L15.9122 21.5855L15.9584 21.584L16.0043 21.5821L16.0502 21.5796L16.0962 21.5767L16.1418 21.5734L16.1875 21.5696L16.2329 21.5654L16.2784 21.5607L16.3236 21.5555L16.3687 21.55L16.4138 21.544L16.4586 21.5375L16.5032 21.5306L16.548 21.5234L16.5924 21.5156L16.6366 21.5074L16.6808 21.4988L16.7248 21.4898L16.7684 21.4803L16.812 21.4705L16.8555 21.4602L16.8988 21.4494L16.9418 21.4384L16.9847 21.4269L17.0273 21.415L17.07 21.4026L17.1122 21.3898L17.1541 21.3767L17.1962 21.3631L17.2378 21.3492L17.2792 21.335L17.3204 21.3202L17.3614 21.3051L17.4023 21.2896L17.4428 21.2738L17.4831 21.2575L17.5232 21.241L17.563 21.2239L17.6027 21.2066L17.6419 21.1889L17.6811 21.1708L17.7199 21.1524L17.7584 21.1336L17.7968 21.1145L17.8347 21.095L17.8725 21.0752L17.91 21.055L17.9472 21.0345L17.9841 21.0137L18.0208 20.9925L18.0572 20.971L18.0932 20.9491L18.129 20.927L18.1645 20.9045L18.1997 20.8818L18.2347 20.8586L18.2692 20.8353L18.3036 20.8115L18.3376 20.7875L18.3712 20.7633L18.4045 20.7386L18.4376 20.7138L18.4703 20.6886L18.5027 20.6631L18.5348 20.6374L18.5665 20.6114L18.598 20.5852L18.629 20.5586L18.6597 20.5318L18.6902 20.5048L18.7203 20.4774L18.75 20.4499L18.7793 20.4222L18.8084 20.3941L18.8372 20.3658L18.8656 20.3373L18.8936 20.3086L18.9212 20.2795L18.9484 20.2504L18.9755 20.2209L19.002 20.1914L19.0283 20.1614L19.0541 20.1314L19.0796 20.1012L19.1048 20.0706L19.1295 20.0401L19.154 20.0092L19.178 19.9782L19.2016 19.947L19.225 19.9156L19.2479 19.8842L19.2704 19.8523L19.2927 19.8204L19.3144 19.7885L19.3359 19.7562L19.357 19.7238L19.3776 19.6914L19.3979 19.6587L19.4178 19.6259L19.4373 19.593L19.4565 19.5599L19.4752 19.5267L19.4936 19.4934L19.5116 19.4599L19.5292 19.4265L19.5464 19.3928L19.5633 19.359L19.5798 19.3252L19.5959 19.2911L19.6116 19.2571L19.6268 19.223L19.6417 19.1888L19.6563 19.1544L19.6704 19.1201L19.6842 19.0854L19.6975 19.0511L19.7105 19.0162L19.723 18.9819L19.7352 18.947L19.7471 18.9122L19.7584 18.8774L19.7695 18.8426L19.7801 18.8078L19.7904 18.7726L19.8002 18.7378L19.8098 18.7026L19.8188 18.6678L19.8276 18.6326L19.8359 18.5974L19.8438 18.5625L19.8513 18.5276L19.8585 18.4922L19.8653 18.4573L19.8717 18.422L19.8777 18.3871L19.8834 18.3521L19.8887 18.317L19.8936 18.2818L19.898 18.2468L19.9022 18.2119L19.906 18.1771L19.9093 18.142L19.9124 18.1072L19.915 18.0723L19.9172 18.0375L19.9192 18.0028L19.9207 17.9682L19.9218 17.9337L19.9226 17.899L19.9231 17.8643L19.9232 17.83L19.9228 17.7957L19.9222 17.7614L19.9212 17.7273L19.9198 17.693L19.918 17.6593L19.916 17.6249L19.9136 17.5914L19.9108 17.5577L19.9076 17.5238L19.9041 17.4902L19.9004 17.457L19.8961 17.4234L19.8916 17.3904L19.8868 17.3572L19.8816 17.3245L19.876 17.2914L19.8702 17.2586L19.864 17.2262L19.8576 17.1938L19.8507 17.1613L19.8435 17.1292L19.836 17.0971L19.8282 17.0653L19.8201 17.0337L19.8116 17.0018L19.8029 16.9706L19.7938 16.9391L19.7844 16.9082L19.7748 16.8772L19.7648 16.8465L19.7544 16.8158L19.7438 16.7853L19.733 16.7552L19.7218 16.7252L19.7103 16.6951L19.6985 16.6655L19.6864 16.6358L19.6742 16.6067L19.6615 16.5774L19.6487 16.5485L19.6355 16.5198L19.622 16.4912L19.6084 16.4629L19.5944 16.4347L19.5801 16.4067L19.5656 16.379L19.5508 16.3515L19.5359 16.3242L19.5206 16.2971L19.505 16.2702L19.4893 16.2436L19.4733 16.2172L19.457 16.1909L19.4405 16.165L19.4238 16.1393L19.4068 16.1138L19.3896 16.0884L19.3723 16.0634L19.3546 16.0386L19.3368 16.014L19.3187 15.9897L19.3004 15.9656L19.282 15.9418L19.2632 15.9181L19.2443 15.8948L19.2252 15.8717L19.2059 15.8488L19.1864 15.8262L19.1668 15.8038L19.1468 15.7818L19.1268 15.7599L19.1065 15.7382L19.0861 15.717L19.0655 15.6959L19.0447 15.675L19.0238 15.6546L19.0027 15.6343L18.9815 15.6143L18.9599 15.5945L18.9384 15.575L18.9167 15.5558L18.8948 15.5369L18.8728 15.5182L18.8506 15.4998L18.8283 15.4817L18.8059 15.4638L18.7833 15.4462L18.7606 15.4289L18.7378 15.4119L18.7148 15.3951L18.6917 15.3786L18.6686 15.3625L18.6453 15.3465L18.622 15.3309L18.5984 15.3155L18.5748 15.3004L18.5512 15.2856L18.5272 15.271L18.5034 15.2568L18.4795 15.2429L18.4554 15.2292L18.4312 15.2158L18.407 15.2026L18.3828 15.1898L18.3584 15.1772L18.334 15.165L18.3094 15.1529L18.2849 15.1412L18.2603 15.1298L18.2356 15.1186L18.2109 15.1078L18.186 15.0971L18.1614 15.0869L18.1364 15.0769L18.1115 15.0671L18.0866 15.0577L18.0616 15.0485L18.0367 15.0396L18.0116 15.031L17.9866 15.0226L17.9616 15.0146L17.9365 15.0067L17.9114 14.9992L17.8864 14.992L17.8612 14.985L17.8362 14.9784L17.8111 14.972L17.786 14.9658L17.7608 14.96L17.7358 14.9544L17.7107 14.9491L17.6856 14.9441L17.6607 14.9393L17.6357 14.9348L17.6106 14.9306L17.5858 14.9266L17.5607 14.923L17.536 14.9195L17.511 14.9163L17.4862 14.9134L17.4616 14.9108L17.4368 14.9085L17.4121 14.9063L17.3875 14.9045L17.3629 14.9029L17.3384 14.9015L17.3139 14.9005L17.2896 14.8997L17.2652 14.899L17.241 14.8987L17.2168 14.8986L17.1927 14.8989L17.1686 14.8993L17.1447 14.8999L17.1208 14.9009L17.0971 14.902L17.0732 14.9034L17.0497 14.905L17.0262 14.9069L17.0028 14.909L16.9795 14.9114L16.9561 14.9139L16.9331 14.9167L16.91 14.9198L16.8872 14.923L16.8643 14.9266L16.8416 14.9302L16.819 14.9342L16.7967 14.9383L16.7742 14.9427L16.752 14.9473L16.7299 14.9521L16.708 14.9571Z" fill="#1E1E1E"/>
<path d="M48.9644 19.5352C48.9644 19.2305 48.9175 18.957 48.8237 18.7148C48.7378 18.4648 48.5737 18.2383 48.3315 18.0352C48.0894 17.8242 47.7495 17.6172 47.312 17.4141C46.8745 17.2109 46.3081 17 45.6128 16.7812C44.8394 16.5312 44.105 16.25 43.4097 15.9375C42.7222 15.625 42.1128 15.2617 41.5815 14.8477C41.0581 14.4258 40.644 13.9375 40.3394 13.3828C40.0425 12.8281 39.894 12.1836 39.894 11.4492C39.894 10.7383 40.0503 10.0938 40.3628 9.51562C40.6753 8.92969 41.1128 8.42969 41.6753 8.01562C42.2378 7.59375 42.9019 7.26953 43.6675 7.04297C44.4409 6.81641 45.2886 6.70312 46.2104 6.70312C47.4683 6.70312 48.5659 6.92969 49.5034 7.38281C50.4409 7.83594 51.1675 8.45703 51.6831 9.24609C52.2065 10.0352 52.4683 10.9375 52.4683 11.9531H48.9761C48.9761 11.4531 48.8706 11.0156 48.6597 10.6406C48.4565 10.2578 48.144 9.95703 47.7222 9.73828C47.3081 9.51953 46.7847 9.41016 46.1519 9.41016C45.5425 9.41016 45.0347 9.50391 44.6284 9.69141C44.2222 9.87109 43.9175 10.1172 43.7144 10.4297C43.5112 10.7344 43.4097 11.0781 43.4097 11.4609C43.4097 11.75 43.48 12.0117 43.6206 12.2461C43.769 12.4805 43.9878 12.6992 44.2769 12.9023C44.5659 13.1055 44.9214 13.2969 45.3433 13.4766C45.7651 13.6562 46.2534 13.832 46.8081 14.0039C47.7378 14.2852 48.5542 14.6016 49.2573 14.9531C49.9683 15.3047 50.562 15.6992 51.0386 16.1367C51.5151 16.5742 51.8745 17.0703 52.1167 17.625C52.3589 18.1797 52.48 18.8086 52.48 19.5117C52.48 20.2539 52.3354 20.918 52.0464 21.5039C51.7573 22.0898 51.3394 22.5859 50.7925 22.9922C50.2456 23.3984 49.5933 23.707 48.8354 23.918C48.0776 24.1289 47.23 24.2344 46.2925 24.2344C45.4487 24.2344 44.6167 24.125 43.7964 23.9062C42.9761 23.6797 42.23 23.3398 41.5581 22.8867C40.894 22.4336 40.3628 21.8555 39.9644 21.1523C39.5659 20.4492 39.3667 19.6172 39.3667 18.6562H42.894C42.894 19.1875 42.9761 19.6367 43.1401 20.0039C43.3042 20.3711 43.5347 20.668 43.8315 20.8945C44.1362 21.1211 44.4956 21.2852 44.9097 21.3867C45.3315 21.4883 45.7925 21.5391 46.2925 21.5391C46.9019 21.5391 47.4019 21.4531 47.7925 21.2812C48.1909 21.1094 48.4839 20.8711 48.6714 20.5664C48.8667 20.2617 48.9644 19.918 48.9644 19.5352ZM66.2495 13.8867V16.6289H57.3433V13.8867H66.2495ZM58.3862 6.9375V24H54.8706V6.9375H58.3862ZM68.7573 6.9375V24H65.2534V6.9375H68.7573ZM83.2651 21.2578V24H74.1831V21.2578H83.2651ZM75.3315 6.9375V24H71.8159V6.9375H75.3315ZM82.0815 13.8867V16.5586H74.1831V13.8867H82.0815ZM83.2534 6.9375V9.69141H74.1831V6.9375H83.2534ZM96.2847 21.2578V24H87.6948V21.2578H96.2847ZM88.8315 6.9375V24H85.3159V6.9375H88.8315ZM109.269 21.2578V24H100.679V21.2578H109.269ZM101.816 6.9375V24H98.3003V6.9375H101.816ZM120.167 19.5352C120.167 19.2305 120.121 18.957 120.027 18.7148C119.941 18.4648 119.777 18.2383 119.535 18.0352C119.292 17.8242 118.953 17.6172 118.515 17.4141C118.078 17.2109 117.511 17 116.816 16.7812C116.042 16.5312 115.308 16.25 114.613 15.9375C113.925 15.625 113.316 15.2617 112.785 14.8477C112.261 14.4258 111.847 13.9375 111.542 13.3828C111.246 12.8281 111.097 12.1836 111.097 11.4492C111.097 10.7383 111.253 10.0938 111.566 9.51562C111.878 8.92969 112.316 8.42969 112.878 8.01562C113.441 7.59375 114.105 7.26953 114.871 7.04297C115.644 6.81641 116.492 6.70312 117.414 6.70312C118.671 6.70312 119.769 6.92969 120.707 7.38281C121.644 7.83594 122.371 8.45703 122.886 9.24609C123.41 10.0352 123.671 10.9375 123.671 11.9531H120.179C120.179 11.4531 120.074 11.0156 119.863 10.6406C119.66 10.2578 119.347 9.95703 118.925 9.73828C118.511 9.51953 117.988 9.41016 117.355 9.41016C116.746 9.41016 116.238 9.50391 115.832 9.69141C115.425 9.87109 115.121 10.1172 114.917 10.4297C114.714 10.7344 114.613 11.0781 114.613 11.4609C114.613 11.75 114.683 12.0117 114.824 12.2461C114.972 12.4805 115.191 12.6992 115.48 12.9023C115.769 13.1055 116.125 13.2969 116.546 13.4766C116.968 13.6562 117.457 13.832 118.011 14.0039C118.941 14.2852 119.757 14.6016 120.46 14.9531C121.171 15.3047 121.765 15.6992 122.242 16.1367C122.718 16.5742 123.078 17.0703 123.32 17.625C123.562 18.1797 123.683 18.8086 123.683 19.5117C123.683 20.2539 123.539 20.918 123.25 21.5039C122.96 22.0898 122.542 22.5859 121.996 22.9922C121.449 23.3984 120.796 23.707 120.039 23.918C119.281 24.1289 118.433 24.2344 117.496 24.2344C116.652 24.2344 115.82 24.125 115 23.9062C114.179 23.6797 113.433 23.3398 112.761 22.8867C112.097 22.4336 111.566 21.8555 111.167 21.1523C110.769 20.4492 110.57 19.6172 110.57 18.6562H114.097C114.097 19.1875 114.179 19.6367 114.343 20.0039C114.507 20.3711 114.738 20.668 115.035 20.8945C115.339 21.1211 115.699 21.2852 116.113 21.3867C116.535 21.4883 116.996 21.5391 117.496 21.5391C118.105 21.5391 118.605 21.4531 118.996 21.2812C119.394 21.1094 119.687 20.8711 119.875 20.5664C120.07 20.2617 120.167 19.918 120.167 19.5352Z" fill="#1E1E1E"/>
</svg>
