<svg width="16" height="16" viewBox="0 0 16 16" fill="none" xmlns="http://www.w3.org/2000/svg">
<path d="M8.00016 6.34537C7.67316 6.34537 7.35351 6.44233 7.08162 6.624C6.80973 6.80567 6.59782 7.06389 6.47268 7.36599C6.34755 7.6681 6.3148 8.00053 6.3786 8.32125C6.44239 8.64196 6.59986 8.93656 6.83108 9.16778C7.0623 9.399 7.3569 9.55647 7.67761 9.62026C7.99833 9.68406 8.33076 9.65132 8.63287 9.52618C8.93497 9.40104 9.19319 9.18913 9.37486 8.91724C9.55653 8.64535 9.6535 8.3257 9.6535 7.9987C9.6535 7.78158 9.61073 7.56659 9.52764 7.36599C9.44456 7.1654 9.32277 6.98314 9.16925 6.82961C9.01572 6.67609 8.83346 6.5543 8.63287 6.47122C8.43227 6.38813 8.21728 6.34537 8.00016 6.34537ZM14.6202 4.71203C14.6167 4.1972 14.5219 3.68708 14.3402 3.20536C14.2064 2.85287 13.9993 2.53276 13.7327 2.26615C13.4661 1.99955 13.146 1.79251 12.7935 1.6587C12.3118 1.47701 11.8017 1.38221 11.2868 1.3787C10.4268 1.33203 10.1735 1.33203 8.00016 1.33203C5.82683 1.33203 5.5735 1.33203 4.7135 1.3787C4.19867 1.38221 3.68854 1.47701 3.20683 1.6587C2.85434 1.79251 2.53423 1.99955 2.26762 2.26615C2.00101 2.53276 1.79397 2.85287 1.66016 3.20536C1.47847 3.68708 1.38367 4.1972 1.38016 4.71203C1.3335 5.57203 1.3335 5.82536 1.3335 7.9987C1.3335 10.172 1.3335 10.4254 1.38016 11.2854C1.38734 11.802 1.48201 12.3137 1.66016 12.7987C1.79338 13.1496 2.00025 13.4678 2.26683 13.732C2.53229 14.0002 2.85309 14.2073 3.20683 14.3387C3.68854 14.5204 4.19867 14.6152 4.7135 14.6187C5.5735 14.6654 5.82683 14.6654 8.00016 14.6654C10.1735 14.6654 10.4268 14.6654 11.2868 14.6187C11.8017 14.6152 12.3118 14.5204 12.7935 14.3387C13.1472 14.2073 13.468 14.0002 13.7335 13.732C14.0001 13.4678 14.2069 13.1496 14.3402 12.7987C14.5217 12.3146 14.6165 11.8023 14.6202 11.2854C14.6668 10.4254 14.6668 10.172 14.6668 7.9987C14.6668 5.82536 14.6668 5.57203 14.6202 4.71203ZM12.9268 10.0454C12.9054 10.4568 12.8176 10.862 12.6668 11.2454C12.5374 11.5652 12.345 11.8557 12.1011 12.0996C11.8571 12.3435 11.5666 12.5359 11.2468 12.6654C10.8598 12.8078 10.4523 12.8866 10.0402 12.8987C9.5135 12.8987 9.3735 12.8987 8.00016 12.8987C6.62683 12.8987 6.48683 12.8987 5.96016 12.8987C5.54798 12.8866 5.14049 12.8078 4.7535 12.6654C4.4229 12.5425 4.12435 12.3465 3.88016 12.092C3.63861 11.8529 3.45206 11.5639 3.3335 11.2454C3.19053 10.8588 3.1139 10.4508 3.10683 10.0387C3.10683 9.51203 3.10683 9.37203 3.10683 7.9987C3.10683 6.62536 3.10683 6.48536 3.10683 5.9587C3.1139 5.54658 3.19053 5.13862 3.3335 4.75203C3.45635 4.42143 3.65235 4.12288 3.90683 3.8787C4.14705 3.63845 4.43567 3.45209 4.7535 3.33203C5.14049 3.18964 5.54798 3.11084 5.96016 3.0987C6.48683 3.0987 6.62683 3.0987 8.00016 3.0987C9.3735 3.0987 9.5135 3.0987 10.0402 3.0987C10.4523 3.11084 10.8598 3.18964 11.2468 3.33203C11.5774 3.45489 11.876 3.65088 12.1202 3.90536C12.3617 4.14453 12.5483 4.43345 12.6668 4.75203C12.8092 5.13902 12.888 5.54652 12.9002 5.9587C12.9002 6.48536 12.9002 6.62536 12.9002 7.9987C12.9002 9.37203 12.9468 9.51203 12.9268 10.0387V10.0454ZM11.8602 5.08536C11.7808 4.87002 11.6556 4.67446 11.4934 4.51217C11.3311 4.34989 11.1355 4.22474 10.9202 4.14536C10.6245 4.04287 10.3131 3.99323 10.0002 3.9987C9.48016 3.9987 9.3335 3.9987 8.00016 3.9987C6.66683 3.9987 6.52016 3.9987 6.00016 3.9987C5.68567 4.00177 5.37421 4.06045 5.08016 4.17203C4.86812 4.2478 4.67462 4.36784 4.51255 4.52417C4.35048 4.68049 4.22354 4.86952 4.14016 5.0787C4.04335 5.37561 3.99605 5.68643 4.00016 5.9987C4.00016 6.5187 4.00016 6.66536 4.00016 7.9987C4.00016 9.33203 4.00016 9.4787 4.00016 9.9987C4.00677 10.3128 4.06534 10.6237 4.1735 10.9187C4.25287 11.134 4.37802 11.3296 4.54031 11.4919C4.70259 11.6542 4.89815 11.7793 5.1135 11.8587C5.39794 11.9633 5.69726 12.0218 6.00016 12.032C6.52016 12.032 6.66683 12.032 8.00016 12.032C9.3335 12.032 9.48016 12.032 10.0002 12.032C10.3147 12.029 10.6261 11.9703 10.9202 11.8587C11.1355 11.7793 11.3311 11.6542 11.4934 11.4919C11.6556 11.3296 11.7808 11.134 11.8602 10.9187C11.9717 10.6247 12.0304 10.3132 12.0335 9.9987C12.0335 9.4787 12.0335 9.33203 12.0335 7.9987C12.0335 6.66536 12.0335 6.5187 12.0335 5.9987C12.0337 5.6839 11.9749 5.37185 11.8602 5.0787V5.08536ZM8.00016 10.5454C7.66604 10.5454 7.33521 10.4794 7.0266 10.3514C6.718 10.2233 6.4377 10.0356 6.20175 9.79906C5.9658 9.56249 5.77885 9.2817 5.65159 8.97276C5.52434 8.66382 5.45929 8.33282 5.46016 7.9987C5.46016 7.49473 5.60969 7.0021 5.88982 6.58316C6.16995 6.16422 6.56808 5.83781 7.03381 5.64525C7.49954 5.4527 8.01193 5.40266 8.50612 5.50146C9.0003 5.60027 9.45406 5.84348 9.80995 6.2003C10.1658 6.55713 10.4079 7.01152 10.5054 7.50597C10.6029 8.00041 10.5515 8.51267 10.3577 8.97789C10.1639 9.44312 9.8365 9.84039 9.41683 10.1194C8.99715 10.3984 8.50413 10.5467 8.00016 10.5454ZM10.6668 5.95203C10.5195 5.93643 10.3831 5.86685 10.284 5.75668C10.1848 5.64651 10.13 5.50356 10.13 5.35536C10.13 5.20717 10.1848 5.06422 10.284 4.95405C10.3831 4.84388 10.5195 4.7743 10.6668 4.7587C10.8142 4.7743 10.9506 4.84388 11.0497 4.95405C11.1488 5.06422 11.2037 5.20717 11.2037 5.35536C11.2037 5.50356 11.1488 5.64651 11.0497 5.75668C10.9506 5.86685 10.8142 5.93643 10.6668 5.95203Z" fill="white"/>
</svg>
